<?xml version="1.0" encoding="UTF-8" standalone="no"?>
<svg
   xmlns:dc="http://purl.org/dc/elements/1.1/"
   xmlns:cc="http://creativecommons.org/ns#"
   xmlns:rdf="http://www.w3.org/1999/02/22-rdf-syntax-ns#"
   xmlns:svg="http://www.w3.org/2000/svg"
   xmlns="http://www.w3.org/2000/svg"
   xmlns:sodipodi="http://sodipodi.sourceforge.net/DTD/sodipodi-0.dtd"
   xmlns:inkscape="http://www.inkscape.org/namespaces/inkscape"
   id="svg4483"
   version="1.1"
   inkscape:version="0.47 r22583"
   width="100%"
   height="100%"
   sodipodi:docname="NetFPGA.dxf">
  <metadata
     id="metadata4720">
    <rdf:RDF>
      <cc:Work
         rdf:about="">
        <dc:format>image/svg+xml</dc:format>
        <dc:type
           rdf:resource="http://purl.org/dc/dcmitype/StillImage" />
        <dc:title></dc:title>
      </cc:Work>
    </rdf:RDF>
  </metadata>
  <sodipodi:namedview
     pagecolor="#ffffff"
     bordercolor="#666666"
     borderopacity="1"
     objecttolerance="10"
     gridtolerance="10"
     guidetolerance="10"
     inkscape:pageopacity="0"
     inkscape:pageshadow="2"
     inkscape:window-width="1430"
     inkscape:window-height="952"
     id="namedview4718"
     showgrid="false"
     inkscape:zoom="2.449982"
     inkscape:cx="280.00001"
     inkscape:cy="691.4287"
     inkscape:window-x="444"
     inkscape:window-y="129"
     inkscape:window-maximized="0"
     inkscape:current-layer="g4494" />
  <desc
     id="desc4485">/home/gac1/NetFPGA.dxf - scale = 1.000000</desc>
  <defs
     id="defs4487">
    <inkscape:perspective
       sodipodi:type="inkscape:persp3d"
       inkscape:vp_x="0 : 0.5 : 1"
       inkscape:vp_y="0 : 1000 : 0"
       inkscape:vp_z="1 : 0.5 : 1"
       inkscape:persp3d-origin="0.5 : 0.33333333 : 1"
       id="perspective4722" />
    <marker
       refY="0.0"
       refX="0.0"
       style="overflow:visible"
       id="DistanceX"
       orient="auto">
      <path
         style="stroke:#000000; stroke-width:0.5"
         d="M 3,-3 L -3,3 M 0,-5 L  0,5"
         id="path4490" />
    </marker>
    <symbol
       id="*MODEL_SPACE" />
    <symbol
       id="*PAPER_SPACE" />
  </defs>
  <g
     inkscape:label="0"
     inkscape:groupmode="layer"
     id="g4494">
    <path
       style="stroke:#000000;fill:none"
       d="M 191.229651,412.726110 L 186.285901,412.726110 L 154.744650,371.729859 L 154.744650,412.726110 L 145.643400,412.726110 L 145.643400,353.273609 L 150.508400,353.273609 L 182.128401,394.268609 L 182.128401,353.273609 L 191.229651,353.273609 L 191.229651,412.726110 L 191.229651,412.726110"
       id="path4496" />
    <path
       style="stroke:#000000;fill:none"
       d="M 246.257150,385.097361 C 246.257150,387.662361 245.472151,389.811111 243.902151,391.539859"
       id="path4498" />
    <path
       style="stroke:#000000;fill:none"
       d="M 243.902151,391.539859 C 242.177148,393.373609 239.927148,394.288611 237.155900,394.288611"
       id="path4500" />
    <path
       style="stroke:#000000;fill:none"
       d="M 237.155900,375.812359 L 209.773400,375.812359 L 209.773400,385.109858 L 237.155900,385.109858 L 237.155900,375.812359 L 237.155900,375.812359"
       id="path4502" />
    <path
       style="stroke:#000000;fill:none"
       d="M 209.772149,412.726110 C 207.104652,412.726110 204.920901,411.849861 203.220900,410.096108"
       id="path4504" />
    <path
       style="stroke:#000000;fill:none"
       d="M 203.220900,410.096108 C 201.520899,408.341108 200.670899,406.156110 200.670899,403.539860"
       id="path4506" />
    <path
       style="stroke:#000000;fill:none"
       d="M 237.155900,394.288611 L 209.772149,394.288611 L 209.772149,403.546110 L 243.927149,403.546110 L 243.927149,412.726110 L 209.772149,412.726110"
       id="path4508" />
    <path
       style="stroke:#000000;fill:none"
       d="M 200.670899,375.819860 C 200.670899,373.151108 201.454650,370.951111 203.024650,369.223611"
       id="path4510" />
    <path
       style="stroke:#000000;fill:none"
       d="M 203.024650,369.223611 C 204.593400,367.497361 206.843400,366.632359 209.772149,366.632359"
       id="path4512" />
    <path
       style="stroke:#000000;fill:none"
       d="M 200.670899,403.539860 L 200.670899,375.819860"
       id="path4514" />
    <path
       style="stroke:#000000;fill:none"
       d="M 237.155900,366.632359 C 239.822150,366.632359 242.005900,367.509859 243.707148,369.264859"
       id="path4516" />
    <path
       style="stroke:#000000;fill:none"
       d="M 243.707148,369.264859 C 245.407149,371.019859 246.257150,373.207358 246.257150,375.824859"
       id="path4518" />
    <path
       style="stroke:#000000;fill:none"
       d="M 209.772149,366.632359 L 237.155900,366.632359"
       id="path4520" />
    <path
       style="stroke:#000000;fill:none"
       d="M 246.257150,375.824859 L 246.257150,385.097361 L 246.257150,385.097361"
       id="path4522" />
    <path
       style="stroke:#000000;fill:none"
       d="M 263.275902,412.726110 C 260.608401,412.726110 258.412149,411.849861 256.685900,410.096108"
       id="path4524" />
    <path
       style="stroke:#000000;fill:none"
       d="M 256.685900,410.096108 C 254.959650,408.341108 254.097149,406.156110 254.097149,403.537358"
       id="path4526" />
    <path
       style="stroke:#000000;fill:none"
       d="M 272.384649,412.726110 L 263.275902,412.726110"
       id="path4528" />
    <path
       style="stroke:#000000;fill:none"
       d="M 254.097149,403.537358 L 254.097149,353.507361 L 263.275902,353.507361 L 263.275902,366.632359 L 272.384649,366.632359 L 272.384649,375.812359 L 263.275902,375.812359 L 263.275902,403.546110 L 272.384649,403.546110 L 272.384649,412.726110 L 272.384649,412.726110"
       id="path4530" />
    <path
       style="stroke:#000000;fill:none"
       d="M 317.085899,362.492359 L 289.760900,362.492359 L 289.760900,376.437359 L 313.945902,376.437359 L 313.945902,385.617359 L 289.760900,385.617359 L 289.760900,412.726110 L 280.582150,412.726110 L 280.582150,353.312359 L 317.085899,353.312359 L 317.085899,362.492359 L 317.085899,362.492359"
       id="path4532" />
    <path
       style="stroke:#000000;fill:none"
       d="M 370.059651,376.442359 C 370.059651,382.558610 367.024649,385.617359 360.958401,385.617359"
       id="path4534" />
    <path
       style="stroke:#000000;fill:none"
       d="M 360.958401,362.492359 L 334.317150,362.492359 L 334.317150,376.437359 L 360.958401,376.437359 L 360.958401,362.492359 L 360.958401,362.492359"
       id="path4536" />
    <path
       style="stroke:#000000;fill:none"
       d="M 360.958401,353.312359 C 363.467151,353.312359 365.610901,354.214860 367.390899,356.017358"
       id="path4538" />
    <path
       style="stroke:#000000;fill:none"
       d="M 367.390899,356.017358 C 369.168399,357.821111 370.059651,359.977358 370.059651,362.487359"
       id="path4540" />
    <path
       style="stroke:#000000;fill:none"
       d="M 360.958401,385.617359 L 334.317150,385.617359 L 334.317150,412.726110 L 325.215900,412.726110 L 325.215900,353.312359 L 360.958401,353.312359"
       id="path4542" />
    <path
       style="stroke:#000000;fill:none"
       d="M 370.059651,362.487359 L 370.059651,376.442359 L 370.059651,376.442359"
       id="path4544" />
    <path
       style="stroke:#000000;fill:none"
       d="M 386.314650,412.726110 C 381.448400,412.726110 378.518400,410.684861 377.524651,406.604859"
       id="path4546" />
    <path
       style="stroke:#000000;fill:none"
       d="M 377.524651,406.604859 C 377.317152,405.663608 377.212149,404.642360 377.212149,403.543609"
       id="path4548" />
    <path
       style="stroke:#000000;fill:none"
       d="M 422.798400,412.726110 L 386.314650,412.726110"
       id="path4550" />
    <path
       style="stroke:#000000;fill:none"
       d="M 377.212149,362.494860 C 377.212149,360.088611 378.077148,357.956111 379.803402,356.097359"
       id="path4552" />
    <path
       style="stroke:#000000;fill:none"
       d="M 379.803402,356.097359 C 381.529651,354.241109 383.699650,353.312359 386.314650,353.312359"
       id="path4554" />
    <path
       style="stroke:#000000;fill:none"
       d="M 377.212149,403.543609 L 377.212149,362.494860"
       id="path4556" />
    <path
       style="stroke:#000000;fill:none"
       d="M 386.314650,353.312359 L 421.333398,353.312359 L 421.333398,362.492359 L 386.314650,362.492359 L 386.314650,403.546110 L 413.697150,403.546110 L 413.697150,385.617359 L 395.482149,385.617359 L 395.482149,376.437359 L 422.798400,376.437359 L 422.798400,412.726110 L 422.798400,412.726110"
       id="path4558" />
    <path
       style="stroke:#000000;fill:none"
       d="M 467.747150,362.492359 L 440.285900,362.492359 L 440.285900,376.437359 L 467.747150,376.437359 L 467.747150,362.492359 L 467.747150,362.492359"
       id="path4560" />
    <path
       style="stroke:#000000;fill:none"
       d="M 431.184650,362.494860 C 431.184650,359.931111 432.009648,357.759861 433.658399,355.981110"
       id="path4562" />
    <path
       style="stroke:#000000;fill:none"
       d="M 433.658399,355.981110 C 435.305898,354.202359 437.515902,353.312359 440.285900,353.312359"
       id="path4564" />
    <path
       style="stroke:#000000;fill:none"
       d="M 476.848400,412.726110 L 467.747150,412.726110 L 467.747150,385.617359 L 440.285900,385.617359 L 440.285900,412.726110 L 431.184650,412.726110 L 431.184650,362.494860"
       id="path4566" />
    <path
       style="stroke:#000000;fill:none"
       d="M 467.747150,353.312359 C 469.944648,353.312359 472.009649,354.293610 473.945900,356.254859"
       id="path4568" />
    <path
       style="stroke:#000000;fill:none"
       d="M 473.945900,356.254859 C 475.882150,358.217359 476.848400,360.297361 476.848400,362.494860"
       id="path4570" />
    <path
       style="stroke:#000000;fill:none"
       d="M 440.285900,353.312359 L 467.747150,353.312359"
       id="path4572" />
    <path
       style="stroke:#000000;fill:none"
       d="M 476.848400,362.494860 L 476.848400,412.726110 L 476.848400,412.726110"
       id="path4576" />
    <path
       style="stroke:#000000;fill:none"
       d="m 136.0309,384.54861 0,-11.37 0.006,0.0315"
       id="path4606"
       sodipodi:nodetypes="ccc" />
    <path
       style="stroke:#000000;fill:none"
       d="M 83.152152,385.462361 C 83.152152,385.501061 83.150950,385.539860 83.152152,385.576111"
       id="path4608" />
    <path
       style="stroke:#000000;fill:none"
       d="m 83.168997,373.24154 -0.01685,-0.0629 0,12.28375"
       id="path4610"
       sodipodi:nodetypes="ccc" />
    <path
       style="stroke:#000000;fill:none"
       d="M 83.158352,385.784858 C 83.269602,388.519859 85.004600,391.284861 88.644600,393.698611"
       id="path4612" />
    <path
       style="stroke:#000000;fill:none"
       d="M 88.644600,393.698611 C 99.319603,400.778610 119.429600,400.801110 130.342100,393.689611"
       id="path4614" />
    <path
       style="stroke:#000000;fill:none"
       d="M 130.342100,393.689611 C 134.612100,390.905858 136.368351,387.669611 136.030851,384.548361"
       id="path4616" />
    <path
       style="stroke:#000000;fill:none"
       d="M 83.152152,385.576111 L 83.152152,385.784858 L 83.158352,385.784858"
       id="path4620" />
    <path
       style="stroke:#000000;fill:none"
       d="M 126.085900,361.937360 C 116.569651,357.552361 102.602151,357.627359 93.113401,362.083610"
       id="path4622" />
    <path
       style="stroke:#000000;fill:none"
       d="M 93.113401,362.083610 C 82.522152,367.059859 79.550901,376.454859 88.725901,383.328609"
       id="path4624" />
    <path
       style="stroke:#000000;fill:none"
       d="M 88.725901,383.328609 C 99.357151,391.294860 119.382151,391.321109 130.250898,383.318610"
       id="path4626" />
    <path
       style="stroke:#000000;fill:none"
       d="M 130.250898,383.318610 C 139.703400,376.356111 136.792152,366.872361 126.085900,361.937360"
       id="path4628" />
    <path
       style="stroke:#000000;fill:none"
       d="M 104.815899,372.538609 L 95.328400,377.781109 L 93.883401,376.806111 L 91.698403,382.248609 L 96.283400,381.877359 L 100.840900,381.504859 L 99.189652,380.389861 L 108.722151,374.842361 L 104.815899,372.538609 L 104.815899,372.538609"
       id="path4636" />
    <path
       style="stroke:#000000;fill:none"
       d="M 99.458401,370.447359 L 103.393400,370.719861 L 107.364650,370.993610 L 106.532150,366.759861 L 104.979650,367.569861 L 97.593403,363.492361 L 93.703401,365.329860 L 101.047149,369.618608 L 99.458401,370.447359 L 99.458401,370.447359"
       id="path4638" />
    <path
       style="stroke:#000000;fill:none"
       d="M 114.058400,371.821110 L 121.954649,367.222358 L 123.538401,367.993609 L 123.674652,365.964860 L 123.804648,364.038608 L 120.155900,364.294860 L 116.492148,364.557359 L 118.037151,365.309858 L 110.138400,369.677360 L 114.058400,371.821110 L 114.058400,371.821110"
       id="path4640" />
    <path
       style="stroke:#000000;fill:none"
       d="M 149.247149,325.893611 C 149.233351,325.741110 149.251149,325.592359 149.251149,325.441109"
       id="path4642" />
    <path
       style="stroke:#000000;fill:none"
       d="m 146.38784,326.95143 c -11.92875,6.39 -19.99044,13.90468 -29.09919,25.55968"
       id="path4644"
       sodipodi:nodetypes="cc" />
    <path
       style="stroke:#000000;fill:none"
       d="M 117.288648,352.511111 C 116.191152,353.913608 115.142400,355.341111 114.118650,356.782358"
       id="path4646" />
    <path
       style="stroke:#000000;fill:none"
       d="m 114.11865,356.78236 c 10.6775,-12.35375 19.94821,-19.92489 33.79571,-25.64365"
       id="path4648"
       sodipodi:nodetypes="cc" />
    <path
       style="stroke:#000000;fill:none"
       d="M 120.017151,374.037360 L 115.827151,373.737359 L 111.675901,373.438609 L 112.897152,378.477361 L 114.578401,377.428610 L 124.702150,383.332358 L 128.628400,380.527359 L 118.533402,374.964860 L 120.017151,374.037360 L 120.017151,374.037360"
       id="path4660" />
    <path
       style="stroke:#000000;fill:none"
       d="M 185.667151,313.774859 C 184.635900,316.852359 183.365901,321.771111 183.364650,327.457361"
       id="path4662" />
    <path
       style="stroke:#000000;fill:none"
       d="M 183.364650,327.457361 C 183.365649,333.146108 184.635900,338.068609 185.667151,341.144858"
       id="path4664" />
    <path
       style="stroke:#000000;fill:none"
       d="M 185.667151,341.144858 C 163.518399,340.193611 158.150898,330.057361 157.157150,327.482359"
       id="path4666" />
    <path
       style="stroke:#000000;fill:none"
       d="M 157.157150,327.482359 C 158.222151,324.904861 163.845900,314.742359 185.667151,313.774859"
       id="path4668" />
    <path
       style="stroke:#000000;fill:none"
       d="m 154.27126,331.6004 c 0.19,0.72375 3.35089,14.17696 34.73214,14.17696"
       id="path4672"
       sodipodi:nodetypes="cc" />
    <path
       style="stroke:#000000;fill:none"
       d="M 191.049651,342.544861 C 191.018448,342.477361 187.894651,335.758610 187.892150,327.457361"
       id="path4676" />
    <path
       style="stroke:#000000;fill:none"
       d="M 187.892150,327.457361 C 187.894152,319.159860 191.018399,312.441109 191.049651,312.373609"
       id="path4678" />
    <path
       style="stroke:#000000;fill:none"
       d="M 189.003402,345.777360 L 192.574651,345.777360 L 191.049651,342.544861"
       id="path4680" />
    <path
       style="stroke:#000000;fill:none"
       d="m 189.0034,309.14086 c -31.1325,0 -34.52714,13.61325 -34.72839,14.33575"
       id="path4682"
       sodipodi:nodetypes="cc" />
    <path
       style="stroke:#000000;fill:none"
       d="M 154.564650,327.552360 C 154.564650,329.209859 153.222151,330.553609 151.564649,330.553609"
       id="path4684" />
    <path
       style="stroke:#000000;fill:none"
       d="M 151.564649,330.553609 C 149.904648,330.553609 148.560899,329.209859 148.560899,327.552360"
       id="path4686" />
    <path
       style="stroke:#000000;fill:none"
       d="M 148.560899,327.552360 C 148.560899,325.892360 149.904648,324.548610 151.564649,324.548610"
       id="path4688" />
    <path
       style="stroke:#000000;fill:none"
       d="M 151.564649,324.548610 C 153.222151,324.548610 154.564650,325.892360 154.564650,327.552360"
       id="path4690" />
    <path
       style="stroke:#000000;fill:none"
       d="M 146.297151,327.552360 C 146.297151,330.456111 148.660902,332.817360 151.564649,332.817360"
       id="path4700" />
    <path
       style="stroke:#000000;fill:none"
       d="M 151.564649,332.817360 C 154.467149,332.817360 156.829649,330.456111 156.829649,327.552360"
       id="path4702" />
    <path
       style="stroke:#000000;fill:none"
       d="M 156.829649,327.552360 C 156.829649,324.648609 154.467149,322.286109 151.564649,322.286109"
       id="path4704" />
    <path
       style="stroke:#000000;fill:none"
       d="M 151.564649,322.286109 C 148.660902,322.286109 146.297151,324.648609 146.297151,327.552360"
       id="path4706" />
    <path
       style="stroke:#000000;fill:none"
       d="M 154.564650,327.552360 C 154.564650,329.209859 153.222151,330.553609 151.564649,330.553609"
       id="path4708" />
    <path
       style="stroke:#000000;fill:none"
       d="M 151.564649,330.553609 C 149.904648,330.553609 148.560899,329.209859 148.560899,327.552360"
       id="path4710" />
    <path
       style="stroke:#000000;fill:none"
       d="M 148.560899,327.552360 C 148.560899,325.892360 149.904648,324.548610 151.564649,324.548610"
       id="path4712" />
    <path
       style="stroke:#000000;fill:none"
       d="M 151.564649,324.548610 C 153.222151,324.548610 154.564650,325.892360 154.564650,327.552360"
       id="path4714" />
    <path
       style="stroke:#000000;fill:none"
       d="M 191.049651,312.373609 L 192.573400,309.144859 L 189.003402,309.140858"
       id="path4716" />
  </g>
</svg>
