<?xml version="1.0"?>
<!DOCTYPE svg PUBLIC "-//W3C//DTD SVG 1.1//EN" "http://www.w3.org/Graphics/SVG/1.1/DTD/svg11.dtd">
<svg xmlns="http://www.w3.org/2000/svg" xmlns:xl="http://www.w3.org/1999/xlink" version="1.1" viewBox="117 201 349 608" width="349pt" height="608pt"><metadata xmlns:dc="http://purl.org/dc/elements/1.1/"><dc:date>2014-10-02 20:49Z</dc:date><!-- Produced by OmniGraffle Professional 5.4.4 --></metadata><defs></defs><g stroke="none" stroke-opacity="1" stroke-dasharray="none" fill="none" fill-opacity="1"><title>Canvas 1</title><g><title>Layer 1</title><rect x="117.64499" y="431.845" width="348" height="108" fill="#1a1718"/><path d="M 216.86499 283.989 L 212.90999 283.989 L 187.67699 251.192 L 187.67699 283.989 L 180.39599 283.989 L 180.39599 236.42601 L 184.28799 236.42601 L 209.58299 269.223 L 209.58299 236.42601 L 216.86499 236.42601 Z" fill="#003f94"/><path d="M 253.60499 254.458 L 231.69899 254.458 L 231.69899 261.896 L 253.60499 261.896 Z M 260.88699 261.885 C 260.88699 263.938 260.25899 265.657 259.00299 267.04 C 257.62299 268.507 255.82299 269.239 253.60499 269.239 L 231.69899 269.239 L 231.69899 276.645 L 259.02299 276.645 L 259.02299 283.989 L 231.69899 283.989 C 229.56499 283.989 227.81799 283.288 226.45799 281.884 C 225.09799 280.481 224.41799 278.733 224.41799 276.639 L 224.41799 254.464 C 224.41799 252.329 225.04499 250.569 226.30099 249.187 C 227.55599 247.805 229.35499 247.114 231.69899 247.114 L 253.60499 247.114 C 255.73899 247.114 257.48599 247.816 258.84699 249.219 C 260.20699 250.624 260.88699 252.374 260.88699 254.467 Z" fill="#003f94"/><path d="M 281.78899 283.989 L 274.50199 283.989 C 272.36799 283.989 270.61099 283.288 269.22999 281.884 C 267.84899 280.481 267.15899 278.733 267.15899 276.637 L 267.15899 236.61401 L 274.50199 236.61401 L 274.50199 247.114 L 281.78899 247.114 L 281.78899 254.458 L 274.50199 254.458 L 274.50199 276.645 L 281.78899 276.645 Z" fill="#003f94"/><path d="M 317.54899 243.80101 L 295.68999 243.80101 L 295.68999 254.958 L 315.03799 254.958 L 315.03799 262.301 L 295.68999 262.301 L 295.68999 283.989 L 288.34699 283.989 L 288.34699 236.45801 L 317.54899 236.45801 Z" fill="#1a1718"/><path d="M 352.64699 243.80101 L 331.33399 243.80101 L 331.33399 254.957 L 352.64699 254.957 Z M 359.92799 254.962 C 359.92799 259.855 357.49999 262.301 352.64699 262.301 L 331.33399 262.301 L 331.33399 283.989 L 324.05299 283.989 L 324.05299 236.45801 L 352.64699 236.45801 C 354.65499 236.45801 356.37099 237.17901 357.79299 238.62201 C 359.21599 240.06501 359.92799 241.79001 359.92799 243.79801 Z" fill="#1a1718"/><path d="M 402.12099 283.989 L 372.93299 283.989 C 369.04099 283.989 366.69699 282.356 365.90199 279.091 C 365.73499 278.339 365.65199 277.522 365.65199 276.643 L 365.65199 243.80301 C 365.65199 241.87901 366.34199 240.17301 367.72299 238.68601 C 369.10399 237.20101 370.83999 236.45801 372.93299 236.45801 L 400.94799 236.45801 L 400.94799 243.80101 L 372.93299 243.80101 L 372.93299 276.645 L 394.83899 276.645 L 394.83899 262.301 L 380.26699 262.301 L 380.26699 254.958 L 402.12099 254.958 Z" fill="#1a1718"/><path d="M 438.07999 243.80101 L 416.11099 243.80101 L 416.11099 254.957 L 438.07999 254.957 Z M 445.36099 283.989 L 438.07999 283.989 L 438.07999 262.301 L 416.11099 262.301 L 416.11099 283.989 L 408.82999 283.989 L 408.82999 243.80301 C 408.82999 241.75301 409.48899 240.01601 410.80699 238.59201 C 412.12499 237.17001 413.89299 236.45801 416.11099 236.45801 L 438.07999 236.45801 C 439.83599 236.45801 441.48999 237.24301 443.03799 238.81201 C 444.58599 240.38201 445.36099 242.04601 445.36099 243.80301 Z" fill="#1a1718"/><path d="M 155.87799 251.211 C 155.90899 251.207 155.91299 251.207 155.91299 251.207 L 155.90899 251.193 Z M 155.91299 251.207 C 155.91599 251.219 155.99899 251.552 156.08399 251.898 C 156.13899 251.532 156.18399 251.245 156.19699 251.16 C 156.05599 251.183 155.94399 251.201 155.91299 251.207 M 156.19699 251.16 C 156.25999 251.15 156.27799 251.147 156.32399 251.138 C 156.31299 251.215 156.22299 251.8 156.16099 252.208 C 156.12899 252.081 156.12199 252.051 156.08399 251.898 C 156.03299 252.231 155.98099 252.574 155.98099 252.574 L 156.41599 252.679 L 156.71899 252.489 L 158.70799 251.247 L 156.21199 251.069 C 156.19799 251.15 156.19699 251.16 156.19699 251.16" fill="#00285a"/><path d="M 145.56199 248.687 L 146.03999 250.113 C 146.74199 250.012 147.45499 249.931 148.15899 249.869 L 150.53899 249.663 L 147.27499 247.74 Z" fill="#00285a"/><path d="M 172.70599 261.447 L 172.70599 252.351 L 161.08099 252.351 C 155.22999 250.882 148.22699 250.888 142.34799 252.351 L 130.40299 252.351 L 130.40299 262.177 C 130.40299 262.209 130.40199 262.24 130.40299 262.269 L 130.40299 262.436 L 130.40799 262.436 C 130.49699 264.624 131.88499 266.836 134.79699 268.767 C 143.33699 274.43 159.42499 274.449 168.15499 268.759 C 171.57099 266.533 172.97599 263.944 172.70599 261.447 Z" fill="#003f94"/><path d="M 164.10699 243.72201 C 164.08099 243.71001 164.05599 243.69701 164.02899 243.68401 L 164.10899 243.68001 Z M 164.74999 243.35801 C 157.13699 239.85001 145.96299 239.91001 138.37199 243.47501 C 129.89899 247.456 127.52199 254.971 134.86199 260.47 C 143.36699 266.843 159.38699 266.865 168.08199 260.463 C 175.64399 254.893 173.31499 247.305 164.74999 243.35801" fill="#003f94"/><path d="M 155.18599 257.871 C 155.16299 257.845 155.10499 257.821 154.99899 257.799 C 155.05699 257.811 155.11899 257.839 155.18599 257.871 Z" fill="#1a1718"/><path d="M 147.73399 251.839 L 140.14399 256.033 L 138.98799 255.253 L 137.23999 259.607 L 140.90799 259.31 L 144.55399 259.011 L 143.23299 258.12 L 150.85899 253.682 Z" fill="#fefefe"/><path d="M 143.44799 250.166 L 146.59599 250.383 L 149.77299 250.603 L 149.10699 247.216 L 147.86499 247.864 L 141.95599 244.60201 L 138.84399 246.072 L 144.71899 249.503 Z" fill="#fefefe"/><path d="M 155.12799 251.264 L 161.44499 247.586 L 162.71199 248.203 L 162.82099 246.58 L 162.92499 245.03901 L 160.00599 245.24401 L 157.07499 245.45401 L 158.31099 246.055 L 151.99199 249.549 Z" fill="#fefefe"/><path d="M 159.89499 253.038 L 156.54299 252.798 L 153.22199 252.559 L 154.19899 256.59 L 155.54399 255.751 L 163.64299 260.474 L 166.78399 258.23 L 158.70799 253.78 Z" fill="#fefefe"/><path d="M 183.27899 214.52301 C 183.26799 214.40101 183.28199 214.28201 183.28199 214.16101 C 173.73899 219.27301 164.99899 226.49301 157.71199 235.81701 C 156.83399 236.93901 155.99499 238.08101 155.17599 239.23401 C 163.71799 229.35101 173.97899 222.11101 185.05699 217.53601 C 184.08599 216.91101 183.38899 215.82001 183.27899 214.52301 Z" fill="#1a1718"/><path d="M 212.41499 204.82801 C 211.58999 207.29001 210.57399 211.22501 210.57299 215.77401 C 210.57399 220.32501 211.58999 224.26201 212.41499 226.72401 C 194.69599 225.96301 190.40199 217.85401 189.60699 215.79401 C 190.45799 213.73201 194.95799 205.60201 212.41499 204.82801 M 185.94199 215.28301 L 185.80999 215.75701 L 185.93799 216.24401 C 186.09099 216.82301 189.97899 230.42901 215.08399 230.42901 L 217.94099 230.42901 L 216.72099 227.84301 C 216.69599 227.79001 214.19699 222.41501 214.19499 215.77401 C 214.19699 209.13501 216.69599 203.76001 216.72099 203.70701 L 217.93999 201.12401 L 215.08399 201.12101 C 190.17799 201.12101 186.10299 214.70501 185.94199 215.28301" fill="#1a1718"/><path d="M 184.54099 215.85001 C 184.54099 215.52401 184.80699 215.25801 185.13299 215.25801 C 185.45799 215.25801 185.72199 215.52401 185.72199 215.85001 C 185.72199 216.17401 185.45799 216.43901 185.13299 216.43901 C 184.80699 216.43901 184.54099 216.17401 184.54099 215.85001 M 180.91899 215.85001 C 180.91899 218.17301 182.80999 220.06201 185.13299 220.06201 C 187.45499 220.06201 189.34499 218.17301 189.34499 215.85001 C 189.34499 213.52701 187.45499 211.63601 185.13299 211.63601 C 182.80999 211.63601 180.91899 213.52701 180.91899 215.85001" fill="#1a1718"/><path d="M 187.53299 215.85001 C 187.53299 217.17501 186.45799 218.25101 185.13299 218.25101 C 183.80499 218.25101 182.72999 217.17501 182.72999 215.85001 C 182.72999 214.52201 183.80499 213.44701 185.13299 213.44701 C 186.45799 213.44701 187.53299 214.52201 187.53299 215.85001 Z" fill="#fefefe"/><path d="M 210.92499 399.669 L 206.96999 399.669 L 181.73699 366.872 L 181.73699 399.669 L 174.45599 399.669 L 174.45599 352.107 L 178.34799 352.107 L 203.64399 384.903 L 203.64399 352.107 L 210.92499 352.107 Z" fill="#515254"/><path d="M 247.66599 370.138 L 225.75999 370.138 L 225.75999 377.576 L 247.66599 377.576 Z M 254.94699 377.566 C 254.94699 379.618 254.31899 381.337 253.06299 382.72 C 251.68299 384.187 249.88299 384.919 247.66599 384.919 L 225.75899 384.919 L 225.75899 392.325 L 253.08299 392.325 L 253.08299 399.669 L 225.75899 399.669 C 223.62499 399.669 221.87799 398.968 220.51799 397.565 C 219.15799 396.161 218.47799 394.413 218.47799 392.32 L 218.47799 370.144 C 218.47799 368.009 219.10499 366.249 220.36099 364.867 C 221.61599 363.486 223.41599 362.794 225.75899 362.794 L 247.66599 362.794 C 249.79899 362.794 251.54599 363.496 252.90699 364.9 C 254.26699 366.304 254.94699 368.054 254.94699 370.148 Z" fill="#515254"/><path d="M 275.84899 399.669 L 268.56199 399.669 C 266.42799 399.669 264.67099 398.968 263.28999 397.565 C 261.90899 396.161 261.21899 394.413 261.21899 392.318 L 261.21899 352.294 L 268.56199 352.294 L 268.56199 362.794 L 275.84899 362.794 L 275.84899 370.138 L 268.56199 370.138 L 268.56199 392.325 L 275.84899 392.325 Z" fill="#515254"/><path d="M 311.60999 359.482 L 289.74999 359.482 L 289.74999 370.638 L 309.09799 370.638 L 309.09799 377.982 L 289.74999 377.982 L 289.74999 399.669 L 282.40699 399.669 L 282.40699 352.138 L 311.60999 352.138 Z" fill="#1a1718"/><path d="M 346.70799 359.482 L 325.39499 359.482 L 325.39499 370.638 L 346.70799 370.638 Z M 353.98899 370.642 C 353.98899 375.535 351.56099 377.982 346.70799 377.982 L 325.39499 377.982 L 325.39499 399.669 L 318.11399 399.669 L 318.11399 352.138 L 346.70799 352.138 C 348.71499 352.138 350.42999 352.86 351.85399 354.302 C 353.27599 355.745 353.98899 357.47 353.98899 359.478 Z" fill="#1a1718"/><path d="M 396.17999 399.669 L 366.99299 399.669 C 363.09999 399.669 360.75599 398.036 359.96099 394.772 C 359.79499 394.019 359.71099 393.202 359.71099 392.323 L 359.71099 359.484 C 359.71099 357.559 360.40299 355.853 361.78399 354.366 C 363.16499 352.881 364.90099 352.138 366.99299 352.138 L 395.00799 352.138 L 395.00799 359.482 L 366.99299 359.482 L 366.99299 392.325 L 388.89899 392.325 L 388.89899 377.982 L 374.32699 377.982 L 374.32699 370.638 L 396.17999 370.638 Z" fill="#1a1718"/><path d="M 432.13899 359.482 L 410.16999 359.482 L 410.16999 370.638 L 432.13899 370.638 Z M 439.41999 399.669 L 432.13899 399.669 L 432.13899 377.982 L 410.16999 377.982 L 410.16999 399.669 L 402.88899 399.669 L 402.88899 359.484 C 402.88899 357.433 403.54899 355.696 404.86799 354.273 C 406.18599 352.85 407.95399 352.138 410.16999 352.138 L 432.13899 352.138 C 433.89699 352.138 435.54899 352.923 437.09799 354.492 C 438.64699 356.062 439.41999 357.726 439.41999 359.484 Z" fill="#1a1718"/><path d="M 149.93799 366.891 C 149.96899 366.887 149.97299 366.887 149.97299 366.887 L 149.96899 366.873 Z M 149.97299 366.887 C 149.97599 366.9 150.05899 367.233 150.14399 367.578 C 150.19899 367.212 150.24399 366.925 150.25699 366.84 C 150.11599 366.863 150.00399 366.881 149.97299 366.887 M 150.25699 366.84 C 150.31999 366.83 150.33799 366.827 150.38399 366.819 C 150.37299 366.895 150.28299 367.481 150.22099 367.888 C 150.18899 367.761 150.18199 367.732 150.14399 367.578 C 150.09299 367.911 150.04099 368.254 150.04099 368.254 L 150.47699 368.36 L 150.77899 368.169 L 152.76799 366.927 L 150.27199 366.749 C 150.25799 366.83 150.25699 366.84 150.25699 366.84" fill="#00285a"/><path d="M 139.62199 364.367 L 140.09999 365.793 C 140.80199 365.693 141.51499 365.612 142.21899 365.549 L 144.59899 365.343 L 141.33499 363.42 Z" fill="#00285a"/><path d="M 166.76599 377.127 L 166.76599 368.031 L 155.14099 368.031 C 149.28999 366.563 142.28699 366.569 136.40799 368.031 L 124.46299 368.031 L 124.46299 377.858 C 124.46299 377.889 124.46199 377.92 124.46299 377.949 L 124.46299 378.116 L 124.46799 378.116 C 124.55699 380.304 125.94499 382.516 128.85699 384.447 C 137.39699 390.111 153.48499 390.129 162.21499 384.44 C 165.63099 382.213 167.03599 379.624 166.76599 377.127 Z" fill="#515254"/><path d="M 158.16699 359.403 C 158.14099 359.39 158.11599 359.377 158.08899 359.364 L 158.16899 359.361 Z M 158.80999 359.038 C 151.19699 355.53 140.02299 355.59 132.43199 359.155 C 123.95899 363.136 121.58199 370.652 128.92199 376.151 C 137.42699 382.524 153.44699 382.545 162.14199 376.143 C 169.70399 370.573 167.37499 362.986 158.80999 359.038" fill="#515254"/><path d="M 149.24599 373.551 C 149.22299 373.526 149.16499 373.501 149.05899 373.48 C 149.11699 373.491 149.17899 373.519 149.24599 373.551 Z" fill="#1a1718"/><path d="M 141.79399 367.519 L 134.20399 371.713 L 133.04799 370.933 L 131.29999 375.287 L 134.96799 374.99 L 138.61399 374.692 L 137.29299 373.8 L 144.91899 369.362 Z" fill="#fefefe"/><path d="M 137.50799 365.846 L 140.65599 366.064 L 143.83299 366.283 L 143.16699 362.896 L 141.92499 363.544 L 136.01599 360.282 L 132.90399 361.752 L 138.77899 365.183 Z" fill="#fefefe"/><path d="M 149.18799 366.945 L 155.50499 363.266 L 156.77199 363.883 L 156.88099 362.26 L 156.98499 360.719 L 154.06599 360.924 L 151.13499 361.134 L 152.37099 361.736 L 146.05199 365.23 Z" fill="#fefefe"/><path d="M 153.95499 368.718 L 150.60299 368.478 L 147.28199 368.239 L 148.25899 372.27 L 149.60399 371.431 L 157.70299 376.154 L 160.84399 373.91 L 152.76799 369.46 Z" fill="#fefefe"/><path d="M 177.33899 330.203 C 177.32799 330.081 177.34199 329.962 177.34199 329.841 C 167.79899 334.953 159.05899 342.173 151.77199 351.497 C 150.89399 352.619 150.05499 353.761 149.23599 354.914 C 157.77799 345.031 168.03899 337.791 179.11699 333.216 C 178.14599 332.591 177.44899 331.5 177.33899 330.203 Z" fill="#1a1718"/><path d="M 206.47499 320.508 C 205.64999 322.97 204.63399 326.905 204.63299 331.454 C 204.63399 336.005 205.64999 339.943 206.47499 342.404 C 188.75599 341.643 184.46199 333.534 183.66699 331.474 C 184.51899 329.412 189.01799 321.282 206.47499 320.508 M 180.00199 330.963 L 179.86999 331.438 L 179.99899 331.924 C 180.15099 332.503 184.03899 346.11 209.14399 346.11 L 212.00099 346.11 L 210.78099 343.524 C 210.75599 343.47 208.25699 338.095 208.25499 331.454 C 208.25699 324.816 210.75599 319.441 210.78099 319.387 L 211.99999 316.804 L 209.14399 316.801 C 184.23799 316.801 180.16299 330.385 180.00199 330.963" fill="#1a1718"/><path d="M 178.60199 331.53 C 178.60199 331.204 178.86699 330.939 179.19299 330.939 C 179.51799 330.939 179.78199 331.204 179.78199 331.53 C 179.78199 331.855 179.51799 332.119 179.19299 332.119 C 178.86699 332.119 178.60199 331.855 178.60199 331.53 M 174.97899 331.53 C 174.97899 333.853 176.86999 335.742 179.19299 335.742 C 181.51499 335.742 183.40499 333.853 183.40499 331.53 C 183.40499 329.207 181.51499 327.317 179.19299 327.317 C 176.86999 327.317 174.97899 329.207 174.97899 331.53" fill="#1a1718"/><path d="M 181.59299 331.53 C 181.59299 332.856 180.51899 333.931 179.19299 333.931 C 177.86499 333.931 176.78999 332.856 176.78999 331.53 C 176.78999 330.202 177.86499 329.127 179.19299 329.127 C 180.51899 329.127 181.59299 330.202 181.59299 331.53 Z" fill="#fefefe"/><path d="M 216.86499 521.353 L 212.90999 521.353 L 187.67699 488.556 L 187.67699 521.353 L 180.39599 521.353 L 180.39599 473.791 L 184.28799 473.791 L 209.58299 506.588 L 209.58299 473.791 L 216.86499 473.791 Z" fill="#fefefe"/><path d="M 253.60499 491.822 L 231.69899 491.822 L 231.69899 499.26 L 253.60499 499.26 Z M 260.88699 499.25 C 260.88699 501.302 260.25899 503.021 259.00299 504.404 C 257.62299 505.871 255.82299 506.603 253.60499 506.603 L 231.69899 506.603 L 231.69899 514.009 L 259.02299 514.009 L 259.02299 521.353 L 231.69899 521.353 C 229.56499 521.353 227.81799 520.652 226.45799 519.248 C 225.09799 517.845 224.41799 516.097 224.41799 514.004 L 224.41799 491.828 C 224.41799 489.693 225.04499 487.933 226.30099 486.55 C 227.55599 485.17 229.35499 484.478 231.69899 484.478 L 253.60499 484.478 C 255.73899 484.478 257.48599 485.179 258.84699 486.584 C 260.20699 487.988 260.88699 489.738 260.88699 491.832 Z" fill="#fefefe"/><path d="M 281.78899 521.353 L 274.50199 521.353 C 272.36799 521.353 270.61099 520.652 269.22999 519.248 C 267.84899 517.845 267.15899 516.097 267.15899 514.002 L 267.15899 473.978 L 274.50199 473.978 L 274.50199 484.478 L 281.78899 484.478 L 281.78899 491.822 L 274.50199 491.822 L 274.50199 514.009 L 281.78899 514.009 Z" fill="#fefefe"/><path d="M 317.54899 481.166 L 295.68999 481.166 L 295.68999 492.322 L 315.03799 492.322 L 315.03799 499.666 L 295.68999 499.666 L 295.68999 521.353 L 288.34699 521.353 L 288.34699 473.822 L 317.54899 473.822 Z" fill="#fefefe"/><path d="M 352.64699 481.166 L 331.33399 481.166 L 331.33399 492.322 L 352.64699 492.322 Z M 359.92799 492.326 C 359.92799 497.218 357.49999 499.666 352.64699 499.666 L 331.33399 499.666 L 331.33399 521.353 L 324.05299 521.353 L 324.05299 473.822 L 352.64699 473.822 C 354.65499 473.822 356.37099 474.543 357.79299 475.986 C 359.21599 477.429 359.92799 479.154 359.92799 481.162 Z" fill="#fefefe"/><path d="M 402.12099 521.353 L 372.93299 521.353 C 369.04099 521.353 366.69699 519.72 365.90199 516.455 C 365.73499 515.703 365.65199 514.886 365.65199 514.007 L 365.65199 481.168 C 365.65199 479.242 366.34199 477.537 367.72299 476.05 C 369.10399 474.564 370.83999 473.822 372.93299 473.822 L 400.94799 473.822 L 400.94799 481.166 L 372.93299 481.166 L 372.93299 514.009 L 394.83899 514.009 L 394.83899 499.666 L 380.26699 499.666 L 380.26699 492.322 L 402.12099 492.322 Z" fill="#fefefe"/><path d="M 438.07999 481.166 L 416.11099 481.166 L 416.11099 492.322 L 438.07999 492.322 Z M 445.36099 521.353 L 438.07999 521.353 L 438.07999 499.666 L 416.11099 499.666 L 416.11099 521.353 L 408.82999 521.353 L 408.82999 481.168 C 408.82999 479.117 409.48899 477.381 410.80699 475.957 C 412.12499 474.533 413.89299 473.822 416.11099 473.822 L 438.07999 473.822 C 439.83599 473.822 441.48999 474.607 443.03799 476.175 C 444.58599 477.746 445.36099 479.41 445.36099 481.168 Z" fill="#fefefe"/><path d="M 155.87799 488.574 C 155.90899 488.57 155.91299 488.57 155.91299 488.57 L 155.90899 488.556 Z M 155.91299 488.57 C 155.91599 488.584 155.99899 488.916 156.08399 489.261 C 156.13899 488.896 156.18399 488.609 156.19699 488.523 C 156.05599 488.547 155.94399 488.564 155.91299 488.57 M 156.19699 488.523 C 156.25999 488.513 156.27799 488.511 156.32399 488.502 C 156.31299 488.578 156.22299 489.164 156.16099 489.572 C 156.12899 489.445 156.12199 489.416 156.08399 489.261 C 156.03299 489.595 155.98099 489.937 155.98099 489.937 L 156.41599 490.043 L 156.71899 489.853 L 158.70799 488.611 L 156.21199 488.433 C 156.19799 488.513 156.19699 488.523 156.19699 488.523" fill="#00285a"/><path d="M 145.56199 486.05 L 146.03999 487.476 C 146.74199 487.377 147.45499 487.295 148.15899 487.232 L 150.53899 487.027 L 147.27499 485.103 Z" fill="#00285a"/><path d="M 172.70599 498.81 L 172.70599 489.715 L 161.08099 489.715 C 155.22999 488.246 148.22699 488.252 142.34799 489.715 L 130.40299 489.715 L 130.40299 499.541 C 130.40299 499.572 130.40199 499.603 130.40299 499.632 L 130.40299 499.8 L 130.40799 499.8 C 130.49699 501.988 131.88499 504.199 134.79699 506.131 C 143.33699 511.795 159.42499 511.812 168.15499 506.123 C 171.57099 503.896 172.97599 501.308 172.70599 498.81 Z" fill="#fefefe"/><path d="M 164.10699 481.086 C 164.08099 481.074 164.05599 481.06 164.02899 481.049 L 164.10899 481.045 Z M 164.74999 480.722 C 157.13699 477.215 145.96299 477.273 138.37199 480.84 C 129.89899 484.82 127.52199 492.336 134.86199 497.834 C 143.36699 504.207 159.38699 504.228 168.08199 497.826 C 175.64399 492.257 173.31499 484.67 164.74999 480.722" fill="#fefefe"/><path d="M 155.18599 495.234 C 155.16299 495.209 155.10499 495.185 154.99899 495.164 C 155.05699 495.175 155.11899 495.203 155.18599 495.234 Z" fill="#1a1718"/><path d="M 147.73399 489.203 L 140.14399 493.396 L 138.98799 492.617 L 137.23999 496.97 L 140.90799 496.674 L 144.55399 496.375 L 143.23299 495.484 L 150.85899 491.047 Z" fill="#1a1718"/><path d="M 143.44799 487.529 L 146.59599 487.748 L 149.77299 487.966 L 149.10699 484.58 L 147.86499 485.228 L 141.95599 481.966 L 138.84399 483.435 L 144.71899 486.867 Z" fill="#1a1718"/><path d="M 155.12799 488.629 L 161.44499 484.949 L 162.71199 485.566 L 162.82099 483.943 L 162.92499 482.402 L 160.00599 482.607 L 157.07499 482.818 L 158.31099 483.42 L 151.99199 486.914 Z" fill="#1a1718"/><path d="M 159.89499 490.402 L 156.54299 490.162 L 153.22199 489.924 L 154.19899 493.953 L 155.54399 493.115 L 163.64299 497.838 L 166.78399 495.593 L 158.70799 491.144 Z" fill="#1a1718"/><path d="M 187.68699 453.134 C 191.26699 440.297 215.08399 440.297 215.08399 440.297 C 212.38599 445.972 212.38399 453.138 212.38399 453.138 C 212.38599 460.304 215.08399 465.982 215.08399 465.982 C 191.26699 465.982 187.79399 453.541 187.68899 453.144 Z" fill="#1a1718"/><path d="M 183.27899 451.886 C 183.26799 451.765 183.28199 451.646 183.28199 451.525 C 173.73899 456.636 164.99899 463.857 157.71199 473.181 C 156.83399 474.302 155.99499 475.445 155.17599 476.597 C 163.71799 466.715 173.97899 459.474 185.05699 454.9 C 184.08599 454.275 183.38899 453.183 183.27899 451.886 Z" fill="#fefefe"/><path d="M 212.41499 442.191 C 211.58999 444.654 210.57399 448.59 210.57299 453.138 C 210.57399 457.689 211.58999 461.627 212.41499 464.088 C 194.69599 463.326 190.40199 455.218 189.60699 453.158 C 190.45799 451.095 194.95799 442.966 212.41499 442.191 M 185.94199 452.646 L 185.80999 453.121 L 185.93799 453.607 C 186.09099 454.187 189.97899 467.793 215.08399 467.793 L 217.94099 467.793 L 216.72099 465.207 C 216.69599 465.154 214.19699 459.779 214.19499 453.138 C 214.19699 446.5 216.69599 441.125 216.72099 441.07 L 217.93999 438.488 L 215.08399 438.484 C 190.17799 438.484 186.10299 452.068 185.94199 452.646" fill="#fefefe"/><path d="M 184.54099 453.215 C 184.54099 452.888 184.80699 452.623 185.13299 452.623 C 185.45799 452.623 185.72199 452.888 185.72199 453.215 C 185.72199 453.539 185.45799 453.802 185.13299 453.802 C 184.80699 453.802 184.54099 453.539 184.54099 453.215 M 180.91899 453.215 C 180.91899 455.537 182.80999 457.425 185.13299 457.425 C 187.45499 457.425 189.34499 455.537 189.34499 453.215 C 189.34499 450.89 187.45499 449 185.13299 449 C 182.80999 449 180.91899 450.89 180.91899 453.215" fill="#fefefe"/><path d="M 187.53299 453.215 C 187.53299 454.539 186.45799 455.615 185.13299 455.615 C 183.80499 455.615 182.72999 454.539 182.72999 453.215 C 182.72999 451.886 183.80499 450.81 185.13299 450.81 C 186.45799 450.81 187.53299 451.886 187.53299 453.215 Z" fill="#1a1718"/><path d="M 223.05099 808.432 L 223.05099 796.198 L 231.30099 796.198 L 231.30099 797.635 L 224.67599 797.635 L 224.67599 801.432 L 230.41099 801.432 L 230.41099 802.87 L 224.67599 802.87 L 224.67599 808.432 Z" fill="#8b8d90"/><path d="M 234.18199 804.007 C 234.18199 805.14 234.42799 805.99 234.92199 806.554 C 235.41599 807.119 236.03799 807.401 236.78799 807.401 C 237.53099 807.401 238.14999 807.118 238.64399 806.55 C 239.13799 805.983 239.38499 805.119 239.38499 803.957 C 239.38499 802.861 239.13599 802.031 238.63999 801.466 C 238.14299 800.902 237.52499 800.62 236.78799 800.62 C 236.03799 800.62 235.41599 800.901 234.92199 801.463 C 234.42799 802.024 234.18199 802.872 234.18199 804.007 M 232.63499 804.003 C 232.63499 802.361 233.08999 801.145 234.00199 800.355 C 234.76399 799.698 235.69199 799.37 236.78799 799.37 C 238.00399 799.37 238.99899 799.769 239.77199 800.568 C 240.54499 801.367 240.93199 802.469 240.93199 803.878 C 240.93199 805.018 240.75999 805.916 240.41799 806.57 C 240.07699 807.223 239.57999 807.731 238.92599 808.093 C 238.27299 808.455 237.55999 808.635 236.78799 808.635 C 235.54699 808.635 234.54499 808.238 233.78099 807.442 C 233.01699 806.646 232.63499 805.5 232.63499 804.003" fill="#8b8d90"/><path d="M 242.69099 808.432 L 242.69099 799.573 L 244.03499 799.573 L 244.03499 800.832 C 244.68699 799.857 245.62899 799.37 246.85999 799.37 C 247.39499 799.37 247.88699 799.466 248.33499 799.658 C 248.78399 799.849 249.11999 800.101 249.34299 800.413 C 249.56599 800.724 249.72199 801.094 249.81099 801.523 C 249.86699 801.801 249.89499 802.288 249.89499 802.983 L 249.89499 808.432 L 248.39499 808.432 L 248.39499 803.038 C 248.39499 802.425 248.33599 801.968 248.21899 801.665 C 248.10199 801.361 247.89399 801.119 247.59599 800.938 C 247.29799 800.757 246.94899 800.667 246.54799 800.667 C 245.90699 800.667 245.35399 800.87 244.88899 801.276 C 244.42399 801.683 244.19099 802.454 244.19099 803.59 L 244.19099 808.432 Z" fill="#8b8d90"/><path d="M 255.46599 807.082 L 255.66899 808.408 C 255.24699 808.497 254.86899 808.542 254.53599 808.542 C 253.99099 808.542 253.56799 808.456 253.26799 808.284 C 252.96699 808.111 252.75599 807.885 252.63399 807.605 C 252.51199 807.324 252.45099 806.734 252.45099 805.835 L 252.45099 800.745 L 251.34099 800.745 L 251.34099 799.573 L 252.45099 799.573 L 252.45099 797.38 L 253.95099 796.479 L 253.95099 799.573 L 255.46599 799.573 L 255.46599 800.745 L 253.95099 800.745 L 253.95099 805.912 C 253.95099 806.34 253.97699 806.614 254.02999 806.736 C 254.08299 806.858 254.16899 806.955 254.28999 807.027 C 254.40999 807.099 254.58199 807.135 254.80499 807.135 C 254.97199 807.135 255.19299 807.118 255.46599 807.082 Z" fill="#8b8d90"/><path d="M 267.48299 808.432 L 267.48299 807.131 C 266.79199 808.133 265.85499 808.635 264.66899 808.635 C 264.14599 808.635 263.65799 808.535 263.20499 808.336 C 262.74999 808.134 262.41399 807.882 262.19399 807.58 C 261.97399 807.277 261.81999 806.905 261.73099 806.466 C 261.66899 806.172 261.63899 805.704 261.63899 805.064 L 261.63899 799.573 L 263.13899 799.573 L 263.13899 804.486 C 263.13899 805.27 263.16899 805.799 263.23099 806.071 C 263.32599 806.466 263.52599 806.776 263.83299 807.001 C 264.13899 807.226 264.51799 807.339 264.96999 807.339 C 265.42099 807.339 265.84399 807.223 266.23999 806.992 C 266.63499 806.761 266.91599 806.447 267.07999 806.049 C 267.24499 805.652 267.32699 805.076 267.32699 804.319 L 267.32699 799.573 L 268.82699 799.573 L 268.82699 808.432 Z" fill="#8b8d90"/><path d="M 270.57099 805.792 L 272.05499 805.557 C 272.13799 806.152 272.37099 806.609 272.75099 806.925 C 273.13199 807.243 273.66499 807.401 274.34799 807.401 C 275.03799 807.401 275.54899 807.26 275.88299 806.979 C 276.21599 806.698 276.38299 806.369 276.38299 805.99 C 276.38299 805.65 276.23699 805.382 275.94599 805.187 C 275.74199 805.054 275.23099 804.884 274.41299 804.678 C 273.30999 804.4 272.54499 804.16 272.11999 803.957 C 271.69399 803.754 271.37099 803.472 271.15099 803.113 C 270.93099 802.755 270.82099 802.358 270.82099 801.924 C 270.82099 801.529 270.91099 801.163 271.09199 800.826 C 271.27299 800.49 271.51899 800.211 271.83199 799.988 C 272.06499 799.815 272.38399 799.669 272.78799 799.549 C 273.19099 799.429 273.62399 799.37 274.08599 799.37 C 274.78199 799.37 275.39299 799.47 275.91899 799.67 C 276.44499 799.871 276.83299 800.141 277.08399 800.483 C 277.33399 800.825 277.50699 801.282 277.60199 801.854 L 276.13299 802.057 C 276.06599 801.601 275.87299 801.245 275.55299 800.988 C 275.23199 800.732 274.77999 800.604 274.19499 800.604 C 273.50399 800.604 273.01199 800.718 272.71599 800.947 C 272.42099 801.175 272.27399 801.442 272.27399 801.749 C 272.27399 801.943 272.33499 802.119 272.45799 802.275 C 272.58099 802.436 272.77199 802.57 273.03399 802.675 C 273.18499 802.731 273.62699 802.859 274.36199 803.06 C 275.42599 803.343 276.16699 803.576 276.58599 803.757 C 277.00499 803.937 277.33299 804.201 277.57199 804.546 C 277.81099 804.89 277.92999 805.319 277.92999 805.831 C 277.92999 806.332 277.78399 806.803 277.49199 807.246 C 277.19999 807.688 276.77899 808.031 276.22799 808.272 C 275.67699 808.514 275.05399 808.635 274.35899 808.635 C 273.20799 808.635 272.32999 808.396 271.72599 807.919 C 271.12299 807.44 270.73799 806.731 270.57099 805.792 Z" fill="#8b8d90"/><path d="M 280.82499 803.151 L 285.79299 803.151 C 285.72599 802.405 285.53699 801.845 285.22399 801.472 C 284.74299 800.894 284.12099 800.604 283.35499 800.604 C 282.66299 800.604 282.07999 800.836 281.60799 801.298 C 281.13599 801.759 280.87499 802.378 280.82499 803.151 M 285.77699 805.573 L 287.32199 805.776 C 287.07699 806.682 286.62399 807.385 285.96099 807.885 C 285.29899 808.385 284.45299 808.635 283.42299 808.635 C 282.12599 808.635 281.09899 808.236 280.33899 807.437 C 279.57999 806.639 279.19999 805.519 279.19999 804.078 C 279.19999 802.587 279.58299 801.429 280.35199 800.605 C 281.11999 799.782 282.11599 799.37 283.33999 799.37 C 284.52499 799.37 285.49399 799.773 286.24499 800.58 C 286.99599 801.386 287.37199 802.521 287.37199 803.985 C 287.37199 804.074 287.36899 804.208 287.36299 804.385 L 280.74699 804.385 C 280.80199 805.36 281.07899 806.106 281.57499 806.625 C 282.07199 807.142 282.69099 807.401 283.43299 807.401 C 283.98499 807.401 284.45699 807.256 284.84699 806.965 C 285.23799 806.674 285.54699 806.211 285.77699 805.573" fill="#8b8d90"/><path d="M 290.19399 804.014 C 290.19399 805.149 290.43399 805.998 290.91499 806.558 C 291.39499 807.121 291.96199 807.401 292.61699 807.401 C 293.27699 807.401 293.83599 807.132 294.29799 806.596 C 294.75899 806.059 294.99099 805.241 294.99099 804.14 C 294.99099 802.927 294.75499 802.038 294.28599 801.47 C 293.81599 800.904 293.23699 800.62 292.54899 800.62 C 291.87899 800.62 291.31899 800.892 290.86899 801.437 C 290.41799 801.982 290.19399 802.841 290.19399 804.014 M 294.94399 808.432 L 294.94399 807.318 C 294.38099 808.196 293.55399 808.635 292.46299 808.635 C 291.75599 808.635 291.10599 808.441 290.51299 808.051 C 289.91999 807.662 289.45999 807.118 289.13499 806.42 C 288.80899 805.72 288.64699 804.918 288.64699 804.011 C 288.64699 803.127 288.79299 802.324 289.08799 801.603 C 289.38299 800.882 289.82499 800.33 290.41499 799.946 C 291.00299 799.562 291.66299 799.37 292.39099 799.37 C 292.92399 799.37 293.39999 799.483 293.81699 799.71 C 294.23399 799.936 294.57299 800.231 294.83399 800.594 L 294.83399 796.198 L 296.33399 796.198 L 296.33399 808.432 Z" fill="#8b8d90"/><path d="M 299.10899 806.729 L 300.81199 806.729 L 300.81199 808.432 L 299.10899 808.432 Z M 299.10899 799.573 L 300.81199 799.573 L 300.81199 801.276 L 299.10899 801.276 Z" fill="#8b8d90"/><path d="M 307.38099 808.432 L 307.38099 807.211 L 313.01399 800.76 C 312.37399 800.792 311.80999 800.807 311.32099 800.807 L 307.70899 800.807 L 307.70899 799.573 L 314.95899 799.573 L 314.95899 800.582 L 310.15899 806.189 L 309.21999 807.229 C 309.89499 807.167 310.52799 807.135 311.11899 807.135 L 315.22499 807.135 L 315.22499 808.432 Z" fill="#8b8d90"/><path d="M 317.83299 803.151 L 322.80199 803.151 C 322.73499 802.405 322.54499 801.845 322.23299 801.472 C 321.75199 800.894 321.12899 800.604 320.36399 800.604 C 319.67099 800.604 319.08799 800.836 318.61699 801.298 C 318.14499 801.759 317.88299 802.378 317.83299 803.151 M 322.78599 805.573 L 324.33099 805.776 C 324.08499 806.682 323.63199 807.385 322.96999 807.885 C 322.30699 808.385 321.46099 808.635 320.43199 808.635 C 319.13499 808.635 318.10799 808.236 317.34799 807.437 C 316.58799 806.639 316.20799 805.519 316.20799 804.078 C 316.20799 802.587 316.59199 801.429 317.35999 800.605 C 318.12799 799.782 319.12399 799.37 320.34799 799.37 C 321.53399 799.37 322.50199 799.773 323.25299 800.58 C 324.00399 801.386 324.37999 802.521 324.37999 803.985 C 324.37999 804.074 324.37699 804.208 324.37199 804.385 L 317.75499 804.385 C 317.81099 805.36 318.08699 806.106 318.58399 806.625 C 319.08099 807.142 319.69999 807.401 320.44199 807.401 C 320.99499 807.401 321.46499 807.256 321.85599 806.965 C 322.24699 806.674 322.55599 806.211 322.78599 805.573" fill="#8b8d90"/><path d="M 326.18599 808.432 L 326.18599 799.573 L 327.52999 799.573 L 327.52999 800.908 C 327.87499 800.282 328.19399 799.869 328.48699 799.67 C 328.77999 799.469 329.10099 799.37 329.45199 799.37 C 329.95899 799.37 330.47499 799.532 330.99899 799.855 L 330.47799 801.247 C 330.11199 801.027 329.74499 800.917 329.37699 800.917 C 329.04999 800.917 328.75599 801.015 328.49499 801.214 C 328.23299 801.411 328.04699 801.685 327.93599 802.036 C 327.76899 802.57 327.68599 803.155 327.68599 803.79 L 327.68599 808.432 Z" fill="#8b8d90"/><path d="M 332.87099 804.007 C 332.87099 805.14 333.11799 805.99 333.61199 806.554 C 334.10599 807.119 334.72699 807.401 335.47599 807.401 C 336.21999 807.401 336.83799 807.118 337.33299 806.55 C 337.82699 805.983 338.07399 805.119 338.07399 803.957 C 338.07399 802.861 337.82499 802.031 337.32899 801.466 C 336.83199 800.902 336.21399 800.62 335.47599 800.62 C 334.72699 800.62 334.10599 800.901 333.61199 801.463 C 333.11799 802.024 332.87099 802.872 332.87099 804.007 M 331.32399 804.003 C 331.32399 802.361 331.77999 801.145 332.69099 800.355 C 333.45299 799.698 334.38099 799.37 335.47599 799.37 C 336.69399 799.37 337.68899 799.769 338.46099 800.568 C 339.23399 801.367 339.62099 802.469 339.62099 803.878 C 339.62099 805.018 339.44999 805.916 339.10799 806.57 C 338.76599 807.223 338.26799 807.731 337.61599 808.093 C 336.96099 808.455 336.24899 808.635 335.47599 808.635 C 334.23699 808.635 333.23499 808.238 332.46999 807.442 C 331.70599 806.646 331.32399 805.5 331.32399 804.003" fill="#8b8d90"/><path d="M 340.78699 805.792 L 342.27099 805.557 C 342.35399 806.152 342.58599 806.609 342.96699 806.925 C 343.34799 807.243 343.87999 807.401 344.56399 807.401 C 345.25299 807.401 345.76499 807.26 346.09799 806.979 C 346.43199 806.698 346.59899 806.369 346.59899 805.99 C 346.59899 805.65 346.45399 805.382 346.16199 805.187 C 345.95799 805.054 345.44699 804.884 344.62799 804.678 C 343.52599 804.4 342.76099 804.16 342.33499 803.957 C 341.90999 803.754 341.58599 803.472 341.36699 803.113 C 341.14699 802.755 341.03699 802.358 341.03699 801.924 C 341.03699 801.529 341.12699 801.163 341.30799 800.826 C 341.48899 800.49 341.73499 800.211 342.04699 799.988 C 342.28099 799.815 342.59999 799.669 343.00299 799.549 C 343.40699 799.429 343.83999 799.37 344.30199 799.37 C 344.99799 799.37 345.60899 799.47 346.13499 799.67 C 346.66099 799.871 347.04899 800.141 347.29999 800.483 C 347.54999 800.825 347.72299 801.282 347.81799 801.854 L 346.34899 802.057 C 346.28199 801.601 346.08799 801.245 345.76799 800.988 C 345.44799 800.732 344.99599 800.604 344.41099 800.604 C 343.71999 800.604 343.22699 800.718 342.93199 800.947 C 342.63699 801.175 342.48999 801.442 342.48999 801.749 C 342.48999 801.943 342.55099 802.119 342.67299 802.275 C 342.79599 802.436 342.98899 802.57 343.24999 802.675 C 343.40099 802.731 343.84299 802.859 344.57899 803.06 C 345.64099 803.343 346.38299 803.576 346.80099 803.757 C 347.22099 803.937 347.54899 804.201 347.78799 804.546 C 348.02699 804.89 348.14599 805.319 348.14599 805.831 C 348.14599 806.332 347.99899 806.803 347.70799 807.246 C 347.41599 807.688 346.99499 808.031 346.44399 808.272 C 345.89299 808.514 345.26999 808.635 344.57499 808.635 C 343.42299 808.635 342.54499 808.396 341.94199 807.919 C 341.33799 807.44 340.95399 806.731 340.78699 805.792 Z" fill="#8b8d90"/><path d="M 357.93999 807.082 L 358.14299 808.408 C 357.71999 808.497 357.34199 808.542 357.00899 808.542 C 356.46399 808.542 356.04099 808.456 355.74199 808.284 C 355.44099 808.111 355.22999 807.885 355.10799 807.605 C 354.98499 807.324 354.92399 806.734 354.92399 805.835 L 354.92399 800.745 L 353.81499 800.745 L 353.81499 799.573 L 354.92399 799.573 L 354.92399 797.38 L 356.42399 796.479 L 356.42399 799.573 L 357.93999 799.573 L 357.93999 800.745 L 356.42399 800.745 L 356.42399 805.912 C 356.42399 806.34 356.45099 806.614 356.50399 806.736 C 356.55699 806.858 356.64299 806.955 356.76299 807.027 C 356.88299 807.099 357.05499 807.135 357.27799 807.135 C 357.44599 807.135 357.66599 807.118 357.93999 807.082 Z" fill="#8b8d90"/><path d="M 359.40099 808.432 L 359.40099 796.198 L 360.90099 796.198 L 360.90099 800.591 C 361.59999 799.777 362.48299 799.37 363.54799 799.37 C 364.20399 799.37 364.77199 799.5 365.25499 799.757 C 365.73799 800.017 366.08299 800.375 366.29099 800.83 C 366.49899 801.287 366.60399 801.949 366.60399 802.816 L 366.60399 808.432 L 365.10399 808.432 L 365.10399 802.819 C 365.10399 802.068 364.94199 801.521 364.61699 801.179 C 364.29199 800.838 363.83299 800.667 363.23999 800.667 C 362.79499 800.667 362.37699 800.782 361.98699 801.013 C 361.59599 801.244 361.31699 801.556 361.15099 801.951 C 360.98399 802.346 360.90099 802.891 360.90099 803.586 L 360.90099 808.432 Z" fill="#8b8d90"/><path d="M 368.87899 808.432 L 368.87899 799.573 L 370.22299 799.573 L 370.22299 800.908 C 370.56899 800.282 370.88699 799.869 371.17999 799.67 C 371.47299 799.469 371.79399 799.37 372.14499 799.37 C 372.65299 799.37 373.16799 799.532 373.69199 799.855 L 373.17099 801.247 C 372.80499 801.027 372.43799 800.917 372.07099 800.917 C 371.74399 800.917 371.44999 801.015 371.18799 801.214 C 370.92599 801.411 370.74099 801.685 370.62899 802.036 C 370.46199 802.57 370.37899 803.155 370.37899 803.79 L 370.37899 808.432 Z" fill="#8b8d90"/><path d="M 375.70499 803.151 L 380.67299 803.151 C 380.60599 802.405 380.41599 801.845 380.10399 801.472 C 379.62399 800.894 378.99999 800.604 378.23499 800.604 C 377.54199 800.604 376.95899 800.836 376.48799 801.298 C 376.01599 801.759 375.75399 802.378 375.70499 803.151 M 380.65699 805.573 L 382.20199 805.776 C 381.95699 806.682 381.50299 807.385 380.84099 807.885 C 380.17799 808.385 379.33299 808.635 378.30299 808.635 C 377.00599 808.635 375.97899 808.236 375.21899 807.437 C 374.45899 806.639 374.07999 805.519 374.07999 804.078 C 374.07999 802.587 374.46299 801.429 375.23099 800.605 C 375.99899 799.782 376.99599 799.37 378.21899 799.37 C 379.40499 799.37 380.37399 799.773 381.12399 800.58 C 381.87499 801.386 382.25099 802.521 382.25099 803.985 C 382.25099 804.074 382.24899 804.208 382.24299 804.385 L 375.62599 804.385 C 375.68199 805.36 375.95799 806.106 376.45599 806.625 C 376.95199 807.142 377.57099 807.401 378.31299 807.401 C 378.86599 807.401 379.33599 807.256 379.72699 806.965 C 380.11799 806.674 380.42699 806.211 380.65699 805.573" fill="#8b8d90"/><path d="M 385.19899 803.151 L 390.16699 803.151 C 390.09999 802.405 389.91099 801.845 389.59799 801.472 C 389.11799 800.894 388.49499 800.604 387.72899 800.604 C 387.03699 800.604 386.45399 800.836 385.98199 801.298 C 385.50999 801.759 385.24899 802.378 385.19899 803.151 M 390.15099 805.573 L 391.69599 805.776 C 391.45099 806.682 390.99799 807.385 390.33499 807.885 C 389.67199 808.385 388.82699 808.635 387.79699 808.635 C 386.49999 808.635 385.47299 808.236 384.71299 807.437 C 383.95399 806.639 383.57399 805.519 383.57399 804.078 C 383.57399 802.587 383.95799 801.429 384.72499 800.605 C 385.49399 799.782 386.48999 799.37 387.71299 799.37 C 388.89899 799.37 389.86799 799.773 390.61899 800.58 C 391.36999 801.386 391.74599 802.521 391.74599 803.985 C 391.74599 804.074 391.74299 804.208 391.73699 804.385 L 385.12099 804.385 C 385.17599 805.36 385.45299 806.106 385.94999 806.625 C 386.44599 807.142 387.06499 807.401 387.80699 807.401 C 388.35999 807.401 388.83099 807.256 389.22099 806.965 C 389.61199 806.674 389.92099 806.211 390.15099 805.573" fill="#8b8d90"/></g></g></svg>
