999
DXF created by Inkscape
  0
SECTION
  2
HEADER
  9
$ACADVER
  1
AC1014
  9
$HANDSEED
  5
FFFF
  9
$MEASUREMENT
 70
     1
  0
ENDSEC
  0
SECTION
  2
TABLES
  0
TABLE
  2
VPORT
  5
8
330
0
100
AcDbSymbolTable
 70
     4
  0
VPORT
  5
2E
330
8
100
AcDbSymbolTableRecord
100
AcDbViewportTableRecord
  2
*ACTIVE
 70
     0
 10
0.0
 20
0.0
 11
1.0
 21
1.0
 12
210.0
 22
148.5
 13
0.0
 23
0.0
 14
10.0
 24
10.0
 15
10.0
 25
10.0
 16
0.0
 26
0.0
 36
1.0
 17
0.0
 27
0.0
 37
0.0
 40
341.0
 41
1.24
 42
50.0
 43
0.0
 44
0.0
 50
0.0
 51
0.0
 71
     0
 72
   100
 73
     1
 74
     3
 75
     0
 76
     0
 77
     0
 78
     0
  0
ENDTAB
  0
TABLE
  2
LTYPE
  5
5
330
0
100
AcDbSymbolTable
 70
     1
  0
LTYPE
  5
14
330
5
100
AcDbSymbolTableRecord
100
AcDbLinetypeTableRecord
  2
BYBLOCK
 70
     0
  3

 72
    65
 73
     0
 40
0.0
  0
LTYPE
  5
15
330
5
100
AcDbSymbolTableRecord
100
AcDbLinetypeTableRecord
  2
BYLAYER
 70
     0
  3

 72
    65
 73
     0
 40
0.0
  0
LTYPE
  5
16
330
5
100
AcDbSymbolTableRecord
100
AcDbLinetypeTableRecord
  2
CONTINUOUS
 70
     0
  3
Solid line
 72
    65
 73
     0
 40
0.0
  0
ENDTAB
  0
TABLE
  2
LAYER
  5
2
330
0
100
AcDbSymbolTable
 70
1
  0
LAYER
  5
10
330
2
100
AcDbSymbolTableRecord
100
AcDbLayerTableRecord
  2
0
 70
     0
 62
     7
  6
CONTINUOUS
  0
ENDTAB
  0
TABLE
  2
STYLE
  5
3
330
0
100
AcDbSymbolTable
 70
     1
  0
STYLE
  5
11
330
3
100
AcDbSymbolTableRecord
100
AcDbTextStyleTableRecord
  2
STANDARD
 70
     0
 40
0.0
 41
1.0
 50
0.0
 71
     0
 42
2.5
  3
txt
  4

  0
ENDTAB
  0
TABLE
  2
VIEW
  5
6
330
0
100
AcDbSymbolTable
 70
     0
  0
ENDTAB
  0
TABLE
  2
UCS
  5
7
330
0
100
AcDbSymbolTable
 70
     0
  0
ENDTAB
  0
TABLE
  2
APPID
  5
9
330
0
100
AcDbSymbolTable
 70
     2
  0
APPID
  5
12
330
9
100
AcDbSymbolTableRecord
100
AcDbRegAppTableRecord
  2
ACAD
 70
     0
  0
ENDTAB
  0
TABLE
  2
DIMSTYLE
  5
A
330
0
100
AcDbSymbolTable
 70
     1
  0
DIMSTYLE
105
27
330
A
100
AcDbSymbolTableRecord
100
AcDbDimStyleTableRecord
  2
ISO-25
 70
     0
  3

  4

  5

  6

  7

 40
1.0
 41
2.5
 42
0.625
 43
3.75
 44
1.25
 45
0.0
 46
0.0
 47
0.0
 48
0.0
140
2.5
141
2.5
142
0.0
143
0.03937007874016
144
1.0
145
0.0
146
1.0
147
0.625
 71
     0
 72
     0
 73
     0
 74
     0
 75
     0
 76
     0
 77
     1
 78
     8
170
     0
171
     3
172
     1
173
     0
174
     0
175
     0
176
     0
177
     0
178
     0
270
     2
271
     2
272
     2
273
     2
274
     3
340
11
275
     0
280
     0
281
     0
282
     0
283
     0
284
     8
285
     0
286
     0
287
     3
288
     0
  0
ENDTAB
  0
TABLE
  2
BLOCK_RECORD
  5
1
330
0
100
AcDbSymbolTable
 70
     1
  0
BLOCK_RECORD
  5
1F
330
1
100
AcDbSymbolTableRecord
100
AcDbBlockTableRecord
  2
*MODEL_SPACE
  0
BLOCK_RECORD
  5
1B
330
1
100
AcDbSymbolTableRecord
100
AcDbBlockTableRecord
  2
*PAPER_SPACE
  0
ENDTAB
  0
ENDSEC
  0
SECTION
  2
BLOCKS
  0
BLOCK
  5
20
330
1F
100
AcDbEntity
  8
0
100
AcDbBlockBegin
  2
*MODEL_SPACE
 70
     0
 10
0.0
 20
0.0
 30
0.0
  3
*MODEL_SPACE
  1

  0
ENDBLK
  5
21
330
1F
100
AcDbEntity
  8
0
100
AcDbBlockEnd
  0
BLOCK
  5
1C
330
1B
100
AcDbEntity
 67
     1
  8
0
100
AcDbBlockBegin
  2
*PAPER_SPACE
  1

  0
ENDBLK
  5
1D
330
1B
100
AcDbEntity
 67
     1
  8
0
100
AcDbBlockEnd
  0
ENDSEC
  0
SECTION
  2
ENTITIES
  0
LWPOLYLINE
  5
100
100
AcDbEntity
  8
0
 62
7
100
AcDbPolyline
 90
2
 70
0
 10
0.846667
 20
29.068889
 30
0.0
 10
-0.846667
 20
27.375556
 30
0.0
  0
LWPOLYLINE
  5
101
100
AcDbEntity
  8
0
 62
7
100
AcDbPolyline
 90
2
 70
0
 10
0.000000
 20
29.633333
 30
0.0
 10
0.000000
 20
26.811111
 30
0.0
  0
LWPOLYLINE
  5
102
100
AcDbEntity
  8
0
 62
7
100
AcDbPolyline
 90
2
 70
0
 10
0.846667
 20
-239.708889
 30
0.0
 10
-0.846667
 20
-241.402222
 30
0.0
  0
SPLINE
  5
103
100
AcDbEntity
  8
0
 62
7
100
AcDbSpline
 70
8
 71
3
 72
8
 73
4
 74
0
 40
0
 40
0
 40
0
 40
0
 40
1
 40
1
 40
1
 40
1
 10
87.117882
 20
-83.700459
 30
0.0
 10
87.117882
 20
-84.424359
 30
0.0
 10
86.896338
 20
-85.030784
 30
0.0
 10
86.453249
 20
-85.518676
 30
0.0
  0
SPLINE
  5
104
100
AcDbEntity
  8
0
 62
7
100
AcDbSpline
 70
8
 71
3
 72
8
 73
4
 74
0
 40
0
 40
0
 40
0
 40
0
 40
1
 40
1
 40
1
 40
1
 10
86.453249
 20
-85.518676
 30
0.0
 10
85.966416
 20
-86.036201
 30
0.0
 10
85.331416
 20
-86.294434
 30
0.0
 10
84.549307
 20
-86.294434
 30
0.0
  0
LWPOLYLINE
  5
105
100
AcDbEntity
  8
0
 62
7
100
AcDbPolyline
 90
2
 70
0
 10
0.000000
 20
-239.144445
 30
0.0
 10
0.000000
 20
-241.966667
 30
0.0
  0
SPLINE
  5
106
100
AcDbEntity
  8
0
 62
7
100
AcDbSpline
 70
8
 71
3
 72
8
 73
4
 74
0
 40
0
 40
0
 40
0
 40
0
 40
1
 40
1
 40
1
 40
1
 10
76.821005
 20
-91.497906
 30
0.0
 10
76.068177
 20
-91.497906
 30
0.0
 10
75.451874
 20
-91.250609
 30
0.0
 10
74.972096
 20
-90.755662
 30
0.0
  0
SPLINE
  5
107
100
AcDbEntity
  8
0
 62
7
100
AcDbSpline
 70
8
 71
3
 72
8
 73
4
 74
0
 40
0
 40
0
 40
0
 40
0
 40
1
 40
1
 40
1
 40
1
 10
74.972096
 20
-90.755662
 30
0.0
 10
74.492318
 20
-90.260362
 30
0.0
 10
74.252430
 20
-89.643706
 30
0.0
 10
74.252430
 20
-88.905342
 30
0.0
  0
LWPOLYLINE
  5
108
100
AcDbEntity
  8
0
 62
7
100
AcDbPolyline
 90
12
 70
0
 10
71.587899
 20
-91.497906
 30
0.0
 10
70.192663
 20
-91.497906
 30
0.0
 10
61.291021
 20
-79.927854
 30
0.0
 10
61.291021
 20
-91.497906
 30
0.0
 10
58.722446
 20
-91.497906
 30
0.0
 10
58.722446
 20
-74.719090
 30
0.0
 10
60.095457
 20
-74.719090
 30
0.0
 10
69.019324
 20
-86.288790
 30
0.0
 10
69.019324
 20
-74.719090
 30
0.0
 10
71.587899
 20
-74.719090
 30
0.0
 10
71.587899
 20
-91.497906
 30
0.0
 10
71.587899
 20
-91.497906
 30
0.0
  0
SPLINE
  5
109
100
AcDbEntity
  8
0
 62
7
100
AcDbSpline
 70
8
 71
3
 72
8
 73
4
 74
0
 40
0
 40
0
 40
0
 40
0
 40
1
 40
1
 40
1
 40
1
 10
74.252430
 20
-81.082142
 30
0.0
 10
74.252430
 20
-80.328962
 30
0.0
 10
74.473621
 20
-79.708073
 30
0.0
 10
74.916710
 20
-79.220534
 30
0.0
  0
SPLINE
  5
10a
100
AcDbEntity
  8
0
 62
7
100
AcDbSpline
 70
8
 71
3
 72
8
 73
4
 74
0
 40
0
 40
0
 40
0
 40
0
 40
1
 40
1
 40
1
 40
1
 10
74.916710
 20
-79.220534
 30
0.0
 10
75.359446
 20
-78.733348
 30
0.0
 10
75.994446
 20
-78.489226
 30
0.0
 10
76.821005
 20
-78.489226
 30
0.0
  0
LWPOLYLINE
  5
10b
100
AcDbEntity
  8
0
 62
7
100
AcDbPolyline
 90
6
 70
0
 10
84.549307
 20
-81.080026
 30
0.0
 10
76.821357
 20
-81.080026
 30
0.0
 10
76.821357
 20
-83.703987
 30
0.0
 10
84.549307
 20
-83.703987
 30
0.0
 10
84.549307
 20
-81.080026
 30
0.0
 10
84.549307
 20
-81.080026
 30
0.0
  0
SPLINE
  5
10c
100
AcDbEntity
  8
0
 62
7
100
AcDbSpline
 70
8
 71
3
 72
8
 73
4
 74
0
 40
0
 40
0
 40
0
 40
0
 40
1
 40
1
 40
1
 40
1
 10
84.549307
 20
-78.489226
 30
0.0
 10
85.301782
 20
-78.489226
 30
0.0
 10
85.918085
 20
-78.736876
 30
0.0
 10
86.398216
 20
-79.232176
 30
0.0
  0
SPLINE
  5
10d
100
AcDbEntity
  8
0
 62
7
100
AcDbSpline
 70
8
 71
3
 72
8
 73
4
 74
0
 40
0
 40
0
 40
0
 40
0
 40
1
 40
1
 40
1
 40
1
 10
86.398216
 20
-79.232176
 30
0.0
 10
86.877993
 20
-79.727476
 30
0.0
 10
87.117882
 20
-80.344837
 30
0.0
 10
87.117882
 20
-81.083554
 30
0.0
  0
LWPOLYLINE
  5
10e
100
AcDbEntity
  8
0
 62
7
100
AcDbPolyline
 90
6
 70
0
 10
84.549307
 20
-86.294434
 30
0.0
 10
76.821005
 20
-86.294434
 30
0.0
 10
76.821005
 20
-88.907106
 30
0.0
 10
86.460305
 20
-88.907106
 30
0.0
 10
86.460305
 20
-91.497906
 30
0.0
 10
76.821005
 20
-91.497906
 30
0.0
  0
LWPOLYLINE
  5
10f
100
AcDbEntity
  8
0
 62
7
100
AcDbPolyline
 90
2
 70
0
 10
74.252430
 20
-88.905342
 30
0.0
 10
74.252430
 20
-81.082142
 30
0.0
  0
SPLINE
  5
110
100
AcDbEntity
  8
0
 62
7
100
AcDbSpline
 70
8
 71
3
 72
8
 73
4
 74
0
 40
0
 40
0
 40
0
 40
0
 40
1
 40
1
 40
1
 40
1
 10
91.920952
 20
-91.497906
 30
0.0
 10
91.168124
 20
-91.497906
 30
0.0
 10
90.548293
 20
-91.250609
 30
0.0
 10
90.061107
 20
-90.755662
 30
0.0
  0
SPLINE
  5
111
100
AcDbEntity
  8
0
 62
7
100
AcDbSpline
 70
8
 71
3
 72
8
 73
4
 74
0
 40
0
 40
0
 40
0
 40
0
 40
1
 40
1
 40
1
 40
1
 10
90.061107
 20
-90.755662
 30
0.0
 10
89.573921
 20
-90.260362
 30
0.0
 10
89.330505
 20
-89.643706
 30
0.0
 10
89.330505
 20
-88.904637
 30
0.0
  0
LWPOLYLINE
  5
112
100
AcDbEntity
  8
0
 62
7
100
AcDbPolyline
 90
2
 70
0
 10
76.821005
 20
-78.489226
 30
0.0
 10
84.549307
 20
-78.489226
 30
0.0
  0
LWPOLYLINE
  5
113
100
AcDbEntity
  8
0
 62
7
100
AcDbPolyline
 90
3
 70
0
 10
87.117882
 20
-81.083554
 30
0.0
 10
87.117882
 20
-83.700459
 30
0.0
 10
87.117882
 20
-83.700459
 30
0.0
  0
LWPOLYLINE
  5
114
100
AcDbEntity
  8
0
 62
7
100
AcDbPolyline
 90
2
 70
0
 10
94.491643
 20
-91.497906
 30
0.0
 10
91.920952
 20
-91.497906
 30
0.0
  0
SPLINE
  5
115
100
AcDbEntity
  8
0
 62
7
100
AcDbSpline
 70
8
 71
3
 72
8
 73
4
 74
0
 40
0
 40
0
 40
0
 40
0
 40
1
 40
1
 40
1
 40
1
 10
122.057699
 20
-81.257826
 30
0.0
 10
122.057699
 20
-82.983967
 30
0.0
 10
121.201155
 20
-83.847215
 30
0.0
 10
119.489124
 20
-83.847215
 30
0.0
  0
LWPOLYLINE
  5
116
100
AcDbEntity
  8
0
 62
7
100
AcDbPolyline
 90
11
 70
0
 10
89.330505
 20
-88.904637
 30
0.0
 10
89.330505
 20
-74.785059
 30
0.0
 10
91.920952
 20
-74.785059
 30
0.0
 10
91.920952
 20
-78.489226
 30
0.0
 10
94.491643
 20
-78.489226
 30
0.0
 10
94.491643
 20
-81.080026
 30
0.0
 10
91.920952
 20
-81.080026
 30
0.0
 10
91.920952
 20
-88.907106
 30
0.0
 10
94.491643
 20
-88.907106
 30
0.0
 10
94.491643
 20
-91.497906
 30
0.0
 10
94.491643
 20
-91.497906
 30
0.0
  0
SPLINE
  5
117
100
AcDbEntity
  8
0
 62
7
100
AcDbSpline
 70
8
 71
3
 72
8
 73
4
 74
0
 40
0
 40
0
 40
0
 40
0
 40
1
 40
1
 40
1
 40
1
 10
119.489124
 20
-74.730026
 30
0.0
 10
120.197149
 20
-74.730026
 30
0.0
 10
120.802163
 20
-74.984731
 30
0.0
 10
121.304518
 20
-75.493437
 30
0.0
  0
SPLINE
  5
118
100
AcDbEntity
  8
0
 62
7
100
AcDbSpline
 70
8
 71
3
 72
8
 73
4
 74
0
 40
0
 40
0
 40
0
 40
0
 40
1
 40
1
 40
1
 40
1
 10
121.304518
 20
-75.493437
 30
0.0
 10
121.806168
 20
-76.002495
 30
0.0
 10
122.057699
 20
-76.611037
 30
0.0
 10
122.057699
 20
-77.319415
 30
0.0
  0
LWPOLYLINE
  5
119
100
AcDbEntity
  8
0
 62
7
100
AcDbPolyline
 90
12
 70
0
 10
107.107330
 20
-77.320826
 30
0.0
 10
99.395607
 20
-77.320826
 30
0.0
 10
99.395607
 20
-81.256415
 30
0.0
 10
106.221152
 20
-81.256415
 30
0.0
 10
106.221152
 20
-83.847215
 30
0.0
 10
99.395607
 20
-83.847215
 30
0.0
 10
99.395607
 20
-91.497906
 30
0.0
 10
96.805160
 20
-91.497906
 30
0.0
 10
96.805160
 20
-74.730026
 30
0.0
 10
107.107330
 20
-74.730026
 30
0.0
 10
107.107330
 20
-77.320826
 30
0.0
 10
107.107330
 20
-77.320826
 30
0.0
  0
LWPOLYLINE
  5
11a
100
AcDbEntity
  8
0
 62
7
100
AcDbPolyline
 90
6
 70
0
 10
119.489124
 20
-77.320826
 30
0.0
 10
111.970371
 20
-77.320826
 30
0.0
 10
111.970371
 20
-81.256415
 30
0.0
 10
119.489124
 20
-81.256415
 30
0.0
 10
119.489124
 20
-77.320826
 30
0.0
 10
119.489124
 20
-77.320826
 30
0.0
  0
SPLINE
  5
11b
100
AcDbEntity
  8
0
 62
7
100
AcDbSpline
 70
8
 71
3
 72
8
 73
4
 74
0
 40
0
 40
0
 40
0
 40
0
 40
1
 40
1
 40
1
 40
1
 10
126.645221
 20
-91.497906
 30
0.0
 10
125.271857
 20
-91.497906
 30
0.0
 10
124.444946
 20
-90.921820
 30
0.0
 10
124.164488
 20
-89.770354
 30
0.0
  0
SPLINE
  5
11c
100
AcDbEntity
  8
0
 62
7
100
AcDbSpline
 70
8
 71
3
 72
8
 73
4
 74
0
 40
0
 40
0
 40
0
 40
0
 40
1
 40
1
 40
1
 40
1
 10
124.164488
 20
-89.770354
 30
0.0
 10
124.105927
 20
-89.504712
 30
0.0
 10
124.076293
 20
-89.216492
 30
0.0
 10
124.076293
 20
-88.906401
 30
0.0
  0
LWPOLYLINE
  5
11d
100
AcDbEntity
  8
0
 62
7
100
AcDbPolyline
 90
6
 70
0
 10
119.489124
 20
-83.847215
 30
0.0
 10
111.970371
 20
-83.847215
 30
0.0
 10
111.970371
 20
-91.497906
 30
0.0
 10
109.401796
 20
-91.497906
 30
0.0
 10
109.401796
 20
-74.730026
 30
0.0
 10
119.489124
 20
-74.730026
 30
0.0
  0
SPLINE
  5
11e
100
AcDbEntity
  8
0
 62
7
100
AcDbSpline
 70
8
 71
3
 72
8
 73
4
 74
0
 40
0
 40
0
 40
0
 40
0
 40
1
 40
1
 40
1
 40
1
 10
124.076293
 20
-77.321531
 30
0.0
 10
124.076293
 20
-76.642434
 30
0.0
 10
124.320416
 20
-76.040595
 30
0.0
 10
124.807602
 20
-75.516015
 30
0.0
  0
SPLINE
  5
11f
100
AcDbEntity
  8
0
 62
7
100
AcDbSpline
 70
8
 71
3
 72
8
 73
4
 74
0
 40
0
 40
0
 40
0
 40
0
 40
1
 40
1
 40
1
 40
1
 10
124.807602
 20
-75.516015
 30
0.0
 10
125.294788
 20
-74.992140
 30
0.0
 10
125.907210
 20
-74.730026
 30
0.0
 10
126.645221
 20
-74.730026
 30
0.0
  0
LWPOLYLINE
  5
120
100
AcDbEntity
  8
0
 62
7
100
AcDbPolyline
 90
3
 70
0
 10
122.057699
 20
-77.319415
 30
0.0
 10
122.057699
 20
-81.257826
 30
0.0
 10
122.057699
 20
-81.257826
 30
0.0
  0
LWPOLYLINE
  5
121
100
AcDbEntity
  8
0
 62
7
100
AcDbPolyline
 90
2
 70
0
 10
136.941746
 20
-91.497906
 30
0.0
 10
126.645221
 20
-91.497906
 30
0.0
  0
LWPOLYLINE
  5
122
100
AcDbEntity
  8
0
 62
7
100
AcDbPolyline
 90
2
 70
0
 10
124.076293
 20
-88.906401
 30
0.0
 10
124.076293
 20
-77.321531
 30
0.0
  0
SPLINE
  5
123
100
AcDbEntity
  8
0
 62
7
100
AcDbSpline
 70
8
 71
3
 72
8
 73
4
 74
0
 40
0
 40
0
 40
0
 40
0
 40
1
 40
1
 40
1
 40
1
 10
139.308532
 20
-77.321531
 30
0.0
 10
139.308532
 20
-76.597984
 30
0.0
 10
139.541366
 20
-75.985209
 30
0.0
 10
140.006680
 20
-75.483206
 30
0.0
  0
SPLINE
  5
124
100
AcDbEntity
  8
0
 62
7
100
AcDbSpline
 70
8
 71
3
 72
8
 73
4
 74
0
 40
0
 40
0
 40
0
 40
0
 40
1
 40
1
 40
1
 40
1
 10
140.006680
 20
-75.483206
 30
0.0
 10
140.471641
 20
-74.981204
 30
0.0
 10
141.095352
 20
-74.730026
 30
0.0
 10
141.877107
 20
-74.730026
 30
0.0
  0
LWPOLYLINE
  5
125
100
AcDbEntity
  8
0
 62
7
100
AcDbPolyline
 90
12
 70
0
 10
126.645221
 20
-74.730026
 30
0.0
 10
136.528291
 20
-74.730026
 30
0.0
 10
136.528291
 20
-77.320826
 30
0.0
 10
126.645221
 20
-77.320826
 30
0.0
 10
126.645221
 20
-88.907106
 30
0.0
 10
134.373171
 20
-88.907106
 30
0.0
 10
134.373171
 20
-83.847215
 30
0.0
 10
129.232493
 20
-83.847215
 30
0.0
 10
129.232493
 20
-81.256415
 30
0.0
 10
136.941746
 20
-81.256415
 30
0.0
 10
136.941746
 20
-91.497906
 30
0.0
 10
136.941746
 20
-91.497906
 30
0.0
  0
SPLINE
  5
126
100
AcDbEntity
  8
0
 62
7
100
AcDbSpline
 70
8
 71
3
 72
8
 73
4
 74
0
 40
0
 40
0
 40
0
 40
0
 40
1
 40
1
 40
1
 40
1
 10
149.627282
 20
-74.730026
 30
0.0
 10
150.247466
 20
-74.730026
 30
0.0
 10
150.830255
 20
-75.006956
 30
0.0
 10
151.376707
 20
-75.560465
 30
0.0
  0
SPLINE
  5
127
100
AcDbEntity
  8
0
 62
7
100
AcDbSpline
 70
8
 71
3
 72
8
 73
4
 74
0
 40
0
 40
0
 40
0
 40
0
 40
1
 40
1
 40
1
 40
1
 10
151.376707
 20
-75.560465
 30
0.0
 10
151.923160
 20
-76.114326
 30
0.0
 10
152.195857
 20
-76.701348
 30
0.0
 10
152.195857
 20
-77.321531
 30
0.0
  0
LWPOLYLINE
  5
128
100
AcDbEntity
  8
0
 62
7
100
AcDbPolyline
 90
6
 70
0
 10
149.627282
 20
-77.320826
 30
0.0
 10
141.877107
 20
-77.320826
 30
0.0
 10
141.877107
 20
-81.256415
 30
0.0
 10
149.627282
 20
-81.256415
 30
0.0
 10
149.627282
 20
-77.320826
 30
0.0
 10
149.627282
 20
-77.320826
 30
0.0
  0
LWPOLYLINE
  5
129
100
AcDbEntity
  8
0
 62
7
100
AcDbPolyline
 90
7
 70
0
 10
152.195857
 20
-91.497906
 30
0.0
 10
149.627282
 20
-91.497906
 30
0.0
 10
149.627282
 20
-83.847215
 30
0.0
 10
141.877107
 20
-83.847215
 30
0.0
 10
141.877107
 20
-91.497906
 30
0.0
 10
139.308532
 20
-91.497906
 30
0.0
 10
139.308532
 20
-77.321531
 30
0.0
  0
LWPOLYLINE
  5
12a
100
AcDbEntity
  8
0
 62
7
100
AcDbPolyline
 90
2
 70
0
 10
141.877107
 20
-74.730026
 30
0.0
 10
149.627282
 20
-74.730026
 30
0.0
  0
SPLINE
  5
12b
100
AcDbEntity
  8
0
 62
7
100
AcDbSpline
 70
8
 71
3
 72
8
 73
4
 74
0
 40
0
 40
0
 40
0
 40
0
 40
1
 40
1
 40
1
 40
1
 10
41.086027
 20
-83.803470
 30
0.0
 10
41.086027
 20
-83.814392
 30
0.0
 10
41.085745
 20
-83.825342
 30
0.0
 10
41.086027
 20
-83.835573
 30
0.0
  0
LWPOLYLINE
  5
12c
100
AcDbEntity
  8
0
 62
7
100
AcDbPolyline
 90
3
 70
0
 10
152.195857
 20
-77.321531
 30
0.0
 10
152.195857
 20
-91.497906
 30
0.0
 10
152.195857
 20
-91.497906
 30
0.0
  0
SPLINE
  5
12d
100
AcDbEntity
  8
0
 62
7
100
AcDbSpline
 70
8
 71
3
 72
8
 73
4
 74
0
 40
0
 40
0
 40
0
 40
0
 40
1
 40
1
 40
1
 40
1
 10
41.087777
 20
-83.894487
 30
0.0
 10
41.119174
 20
-84.666365
 30
0.0
 10
41.608829
 20
-85.446709
 30
0.0
 10
42.636118
 20
-86.127923
 30
0.0
  0
SPLINE
  5
12e
100
AcDbEntity
  8
0
 62
7
100
AcDbSpline
 70
8
 71
3
 72
8
 73
4
 74
0
 40
0
 40
0
 40
0
 40
0
 40
1
 40
1
 40
1
 40
1
 10
42.636118
 20
-86.127923
 30
0.0
 10
45.648843
 20
-88.126056
 30
0.0
 10
51.324329
 20
-88.132406
 30
0.0
 10
54.404079
 20
-86.125383
 30
0.0
  0
SPLINE
  5
12f
100
AcDbEntity
  8
0
 62
7
100
AcDbSpline
 70
8
 71
3
 72
8
 73
4
 74
0
 40
0
 40
0
 40
0
 40
0
 40
1
 40
1
 40
1
 40
1
 10
54.404079
 20
-86.125383
 30
0.0
 10
55.609168
 20
-85.339747
 30
0.0
 10
56.104821
 20
-84.426405
 30
0.0
 10
56.009571
 20
-83.545519
 30
0.0
  0
LWPOLYLINE
  5
130
100
AcDbEntity
  8
0
 62
7
100
AcDbPolyline
 90
3
 70
0
 10
56.009585
 20
-83.545590
 30
0.0
 10
56.009585
 20
-80.336723
 30
0.0
 10
56.011278
 20
-80.345613
 30
0.0
  0
SPLINE
  5
131
100
AcDbEntity
  8
0
 62
7
100
AcDbSpline
 70
8
 71
3
 72
8
 73
4
 74
0
 40
0
 40
0
 40
0
 40
0
 40
1
 40
1
 40
1
 40
1
 10
53.202885
 20
-77.164192
 30
0.0
 10
50.517188
 20
-75.926648
 30
0.0
 10
46.575249
 20
-75.947815
 30
0.0
 10
43.897313
 20
-77.205467
 30
0.0
  0
SPLINE
  5
132
100
AcDbEntity
  8
0
 62
7
100
AcDbSpline
 70
8
 71
3
 72
8
 73
4
 74
0
 40
0
 40
0
 40
0
 40
0
 40
1
 40
1
 40
1
 40
1
 10
43.897313
 20
-77.205467
 30
0.0
 10
40.908227
 20
-78.609876
 30
0.0
 10
40.069674
 20
-81.261354
 30
0.0
 10
42.659063
 20
-83.201279
 30
0.0
  0
SPLINE
  5
133
100
AcDbEntity
  8
0
 62
7
100
AcDbSpline
 70
8
 71
3
 72
8
 73
4
 74
0
 40
0
 40
0
 40
0
 40
0
 40
1
 40
1
 40
1
 40
1
 10
42.659063
 20
-83.201279
 30
0.0
 10
45.659438
 20
-85.449531
 30
0.0
 10
51.310938
 20
-85.456940
 30
0.0
 10
54.378341
 20
-83.198456
 30
0.0
  0
SPLINE
  5
134
100
AcDbEntity
  8
0
 62
7
100
AcDbSpline
 70
8
 71
3
 72
8
 73
4
 74
0
 40
0
 40
0
 40
0
 40
0
 40
1
 40
1
 40
1
 40
1
 10
54.378341
 20
-83.198456
 30
0.0
 10
57.046046
 20
-81.233484
 30
0.0
 10
56.224427
 20
-78.556959
 30
0.0
 10
53.202885
 20
-77.164192
 30
0.0
  0
LWPOLYLINE
  5
135
100
AcDbEntity
  8
0
 62
7
100
AcDbPolyline
 90
3
 70
0
 10
41.090782
 20
-80.354483
 30
0.0
 10
41.086013
 20
-80.336731
 30
0.0
 10
41.086013
 20
-83.803479
 30
0.0
  0
LWPOLYLINE
  5
136
100
AcDbEntity
  8
0
 62
7
100
AcDbPolyline
 90
3
 70
0
 10
41.086027
 20
-83.835573
 30
0.0
 10
41.086027
 20
-83.894487
 30
0.0
 10
41.087720
 20
-83.894487
 30
0.0
  0
LWPOLYLINE
  5
137
100
AcDbEntity
  8
0
 62
7
100
AcDbPolyline
 90
10
 70
0
 10
47.200018
 20
-80.156101
 30
0.0
 10
44.522435
 20
-81.635651
 30
0.0
 10
44.114624
 20
-81.360484
 30
0.0
 10
43.497971
 20
-82.896479
 30
0.0
 10
44.791957
 20
-82.791704
 30
0.0
 10
46.078185
 20
-82.686576
 30
0.0
 10
45.612166
 20
-82.371898
 30
0.0
 10
48.302449
 20
-80.806270
 30
0.0
 10
47.200018
 20
-80.156101
 30
0.0
 10
47.200018
 20
-80.156101
 30
0.0
  0
SPLINE
  5
138
100
AcDbEntity
  8
0
 62
7
100
AcDbSpline
 70
8
 71
3
 72
8
 73
4
 74
0
 40
0
 40
0
 40
0
 40
0
 40
1
 40
1
 40
1
 40
1
 10
59.739505
 20
-66.991845
 30
0.0
 10
59.735610
 20
-66.948806
 30
0.0
 10
59.740633
 20
-66.906826
 30
0.0
 10
59.740633
 20
-66.864140
 30
0.0
  0
SPLINE
  5
139
100
AcDbEntity
  8
0
 62
7
100
AcDbSpline
 70
8
 71
3
 72
8
 73
4
 74
0
 40
0
 40
0
 40
0
 40
0
 40
1
 40
1
 40
1
 40
1
 10
58.932544
 20
-67.290386
 30
0.0
 10
55.565985
 20
-69.093786
 30
0.0
 10
53.290797
 20
-71.214595
 30
0.0
 10
50.720106
 20
-74.503895
 30
0.0
  0
SPLINE
  5
13a
100
AcDbEntity
  8
0
 62
7
100
AcDbSpline
 70
8
 71
3
 72
8
 73
4
 74
0
 40
0
 40
0
 40
0
 40
0
 40
1
 40
1
 40
1
 40
1
 10
50.720106
 20
-74.503895
 30
0.0
 10
50.410367
 20
-74.899712
 30
0.0
 10
50.114386
 20
-75.302584
 30
0.0
 10
49.825461
 20
-75.709337
 30
0.0
  0
SPLINE
  5
13b
100
AcDbEntity
  8
0
 62
7
100
AcDbSpline
 70
8
 71
3
 72
8
 73
4
 74
0
 40
0
 40
0
 40
0
 40
0
 40
1
 40
1
 40
1
 40
1
 10
49.825461
 20
-75.709337
 30
0.0
 10
52.838889
 20
-72.222834
 30
0.0
 10
55.455289
 20
-70.086090
 30
0.0
 10
59.363362
 20
-68.472129
 30
0.0
  0
LWPOLYLINE
  5
13c
100
AcDbEntity
  8
0
 62
7
100
AcDbPolyline
 90
10
 70
0
 10
45.688013
 20
-79.565904
 30
0.0
 10
46.798557
 20
-79.642809
 30
0.0
 10
47.919332
 20
-79.720067
 30
0.0
 10
47.684382
 20
-78.525209
 30
0.0
 10
47.246232
 20
-78.753809
 30
0.0
 10
45.161671
 20
-77.603048
 30
0.0
 10
44.063824
 20
-78.121631
 30
0.0
 10
46.136393
 20
-79.332012
 30
0.0
 10
45.688013
 20
-79.565904
 30
0.0
 10
45.688013
 20
-79.565904
 30
0.0
  0
SPLINE
  5
13d
100
AcDbEntity
  8
0
 62
7
100
AcDbSpline
 70
8
 71
3
 72
8
 73
4
 74
0
 40
0
 40
0
 40
0
 40
0
 40
1
 40
1
 40
1
 40
1
 10
70.018038
 20
-63.571665
 30
0.0
 10
69.726996
 20
-64.440204
 30
0.0
 10
69.368574
 20
-65.828384
 30
0.0
 10
69.368221
 20
-67.433170
 30
0.0
  0
SPLINE
  5
13e
100
AcDbEntity
  8
0
 62
7
100
AcDbSpline
 70
8
 71
3
 72
8
 73
4
 74
0
 40
0
 40
0
 40
0
 40
0
 40
1
 40
1
 40
1
 40
1
 10
69.368221
 20
-67.433170
 30
0.0
 10
69.368503
 20
-69.038662
 30
0.0
 10
69.726996
 20
-70.427901
 30
0.0
 10
70.018038
 20
-71.296087
 30
0.0
  0
SPLINE
  5
13f
100
AcDbEntity
  8
0
 62
7
100
AcDbSpline
 70
8
 71
3
 72
8
 73
4
 74
0
 40
0
 40
0
 40
0
 40
0
 40
1
 40
1
 40
1
 40
1
 10
70.018038
 20
-71.296087
 30
0.0
 10
63.767168
 20
-71.027623
 30
0.0
 10
62.252341
 20
-68.166948
 30
0.0
 10
61.971882
 20
-67.440226
 30
0.0
  0
SPLINE
  5
140
100
AcDbEntity
  8
0
 62
7
100
AcDbSpline
 70
8
 71
3
 72
8
 73
4
 74
0
 40
0
 40
0
 40
0
 40
0
 40
1
 40
1
 40
1
 40
1
 10
61.971882
 20
-67.440226
 30
0.0
 10
62.272449
 20
-66.712798
 30
0.0
 10
63.859596
 20
-63.844715
 30
0.0
 10
70.018038
 20
-63.571665
 30
0.0
  0
SPLINE
  5
141
100
AcDbEntity
  8
0
 62
7
100
AcDbSpline
 70
8
 71
3
 72
8
 73
4
 74
0
 40
0
 40
0
 40
0
 40
0
 40
1
 40
1
 40
1
 40
1
 10
61.157420
 20
-68.602428
 30
0.0
 10
61.211042
 20
-68.806687
 30
0.0
 10
62.103116
 20
-72.603481
 30
0.0
 10
70.959602
 20
-72.603481
 30
0.0
  0
SPLINE
  5
142
100
AcDbEntity
  8
0
 62
7
100
AcDbSpline
 70
8
 71
3
 72
8
 73
4
 74
0
 40
0
 40
0
 40
0
 40
0
 40
1
 40
1
 40
1
 40
1
 10
71.537099
 20
-71.691198
 30
0.0
 10
71.528294
 20
-71.672148
 30
0.0
 10
70.646688
 20
-69.775967
 30
0.0
 10
70.645982
 20
-67.433170
 30
0.0
  0
SPLINE
  5
143
100
AcDbEntity
  8
0
 62
7
100
AcDbSpline
 70
8
 71
3
 72
8
 73
4
 74
0
 40
0
 40
0
 40
0
 40
0
 40
1
 40
1
 40
1
 40
1
 10
70.645982
 20
-67.433170
 30
0.0
 10
70.646547
 20
-65.091431
 30
0.0
 10
71.528280
 20
-63.195251
 30
0.0
 10
71.537099
 20
-63.176201
 30
0.0
  0
LWPOLYLINE
  5
144
100
AcDbEntity
  8
0
 62
7
100
AcDbPolyline
 90
11
 70
0
 10
49.808457
 20
-79.953606
 30
0.0
 10
52.036955
 20
-78.655737
 30
0.0
 10
52.483924
 20
-78.873401
 30
0.0
 10
52.522377
 20
-78.300842
 30
0.0
 10
52.559066
 20
-77.757212
 30
0.0
 10
51.529307
 20
-77.829531
 30
0.0
 10
50.495316
 20
-77.903615
 30
0.0
 10
50.931349
 20
-78.115987
 30
0.0
 10
48.702146
 20
-79.348592
 30
0.0
 10
49.808457
 20
-79.953606
 30
0.0
 10
49.808457
 20
-79.953606
 30
0.0
  0
SPLINE
  5
145
100
AcDbEntity
  8
0
 62
7
100
AcDbSpline
 70
8
 71
3
 72
8
 73
4
 74
0
 40
0
 40
0
 40
0
 40
0
 40
1
 40
1
 40
1
 40
1
 10
70.959602
 20
-62.263847
 30
0.0
 10
62.173318
 20
-62.263847
 30
0.0
 10
61.215276
 20
-66.105809
 30
0.0
 10
61.158478
 20
-66.309714
 30
0.0
  0
SPLINE
  5
146
100
AcDbEntity
  8
0
 62
7
100
AcDbSpline
 70
8
 71
3
 72
8
 73
4
 74
0
 40
0
 40
0
 40
0
 40
0
 40
1
 40
1
 40
1
 40
1
 10
61.240221
 20
-67.459981
 30
0.0
 10
61.240221
 20
-67.927765
 30
0.0
 10
60.861338
 20
-68.307001
 30
0.0
 10
60.393555
 20
-68.307001
 30
0.0
  0
SPLINE
  5
147
100
AcDbEntity
  8
0
 62
7
100
AcDbSpline
 70
8
 71
3
 72
8
 73
4
 74
0
 40
0
 40
0
 40
0
 40
0
 40
1
 40
1
 40
1
 40
1
 10
60.393555
 20
-68.307001
 30
0.0
 10
59.925066
 20
-68.307001
 30
0.0
 10
59.545830
 20
-67.927765
 30
0.0
 10
59.545830
 20
-67.459981
 30
0.0
  0
SPLINE
  5
148
100
AcDbEntity
  8
0
 62
7
100
AcDbSpline
 70
8
 71
3
 72
8
 73
4
 74
0
 40
0
 40
0
 40
0
 40
0
 40
1
 40
1
 40
1
 40
1
 10
59.545830
 20
-67.459981
 30
0.0
 10
59.545830
 20
-66.991492
 30
0.0
 10
59.925066
 20
-66.612256
 30
0.0
 10
60.393555
 20
-66.612256
 30
0.0
  0
SPLINE
  5
149
100
AcDbEntity
  8
0
 62
7
100
AcDbSpline
 70
8
 71
3
 72
8
 73
4
 74
0
 40
0
 40
0
 40
0
 40
0
 40
1
 40
1
 40
1
 40
1
 10
60.393555
 20
-66.612256
 30
0.0
 10
60.861338
 20
-66.612256
 30
0.0
 10
61.240221
 20
-66.991492
 30
0.0
 10
61.240221
 20
-67.459981
 30
0.0
  0
SPLINE
  5
14a
100
AcDbEntity
  8
0
 62
7
100
AcDbSpline
 70
8
 71
3
 72
8
 73
4
 74
0
 40
0
 40
0
 40
0
 40
0
 40
1
 40
1
 40
1
 40
1
 10
58.906949
 20
-67.459981
 30
0.0
 10
58.906949
 20
-68.279484
 30
0.0
 10
59.574052
 20
-68.945881
 30
0.0
 10
60.393555
 20
-68.945881
 30
0.0
  0
SPLINE
  5
14b
100
AcDbEntity
  8
0
 62
7
100
AcDbSpline
 70
8
 71
3
 72
8
 73
4
 74
0
 40
0
 40
0
 40
0
 40
0
 40
1
 40
1
 40
1
 40
1
 10
60.393555
 20
-68.945881
 30
0.0
 10
61.212705
 20
-68.945881
 30
0.0
 10
61.879455
 20
-68.279484
 30
0.0
 10
61.879455
 20
-67.459981
 30
0.0
  0
SPLINE
  5
14c
100
AcDbEntity
  8
0
 62
7
100
AcDbSpline
 70
8
 71
3
 72
8
 73
4
 74
0
 40
0
 40
0
 40
0
 40
0
 40
1
 40
1
 40
1
 40
1
 10
61.879455
 20
-67.459981
 30
0.0
 10
61.879455
 20
-66.640479
 30
0.0
 10
61.212705
 20
-65.973729
 30
0.0
 10
60.393555
 20
-65.973729
 30
0.0
  0
SPLINE
  5
14d
100
AcDbEntity
  8
0
 62
7
100
AcDbSpline
 70
8
 71
3
 72
8
 73
4
 74
0
 40
0
 40
0
 40
0
 40
0
 40
1
 40
1
 40
1
 40
1
 10
60.393555
 20
-65.973729
 30
0.0
 10
59.574052
 20
-65.973729
 30
0.0
 10
58.906949
 20
-66.640479
 30
0.0
 10
58.906949
 20
-67.459981
 30
0.0
  0
SPLINE
  5
14e
100
AcDbEntity
  8
0
 62
7
100
AcDbSpline
 70
8
 71
3
 72
8
 73
4
 74
0
 40
0
 40
0
 40
0
 40
0
 40
1
 40
1
 40
1
 40
1
 10
61.240221
 20
-67.459981
 30
0.0
 10
61.240221
 20
-67.927765
 30
0.0
 10
60.861338
 20
-68.307001
 30
0.0
 10
60.393555
 20
-68.307001
 30
0.0
  0
SPLINE
  5
14f
100
AcDbEntity
  8
0
 62
7
100
AcDbSpline
 70
8
 71
3
 72
8
 73
4
 74
0
 40
0
 40
0
 40
0
 40
0
 40
1
 40
1
 40
1
 40
1
 10
60.393555
 20
-68.307001
 30
0.0
 10
59.925066
 20
-68.307001
 30
0.0
 10
59.545830
 20
-67.927765
 30
0.0
 10
59.545830
 20
-67.459981
 30
0.0
  0
SPLINE
  5
150
100
AcDbEntity
  8
0
 62
7
100
AcDbSpline
 70
8
 71
3
 72
8
 73
4
 74
0
 40
0
 40
0
 40
0
 40
0
 40
1
 40
1
 40
1
 40
1
 10
59.545830
 20
-67.459981
 30
0.0
 10
59.545830
 20
-66.991492
 30
0.0
 10
59.925066
 20
-66.612256
 30
0.0
 10
60.393555
 20
-66.612256
 30
0.0
  0
SPLINE
  5
151
100
AcDbEntity
  8
0
 62
7
100
AcDbSpline
 70
8
 71
3
 72
8
 73
4
 74
0
 40
0
 40
0
 40
0
 40
0
 40
1
 40
1
 40
1
 40
1
 10
60.393555
 20
-66.612256
 30
0.0
 10
60.861338
 20
-66.612256
 30
0.0
 10
61.240221
 20
-66.991492
 30
0.0
 10
61.240221
 20
-67.459981
 30
0.0
  0
LWPOLYLINE
  5
152
100
AcDbEntity
  8
0
 62
7
100
AcDbPolyline
 90
10
 70
0
 10
51.490149
 20
-80.579081
 30
0.0
 10
50.307638
 20
-80.494415
 30
0.0
 10
49.136063
 20
-80.410101
 30
0.0
 10
49.480727
 20
-81.832148
 30
0.0
 10
49.955213
 20
-81.536167
 30
0.0
 10
52.812360
 20
-83.202337
 30
0.0
 10
53.920435
 20
-82.410704
 30
0.0
 10
51.071402
 20
-80.840842
 30
0.0
 10
51.490149
 20
-80.579081
 30
0.0
 10
51.490149
 20
-80.579081
 30
0.0
  0
LWPOLYLINE
  5
153
100
AcDbEntity
  8
0
 62
7
100
AcDbPolyline
 90
3
 70
0
 10
70.959602
 20
-72.603481
 30
0.0
 10
71.967488
 20
-72.603481
 30
0.0
 10
71.537099
 20
-71.691198
 30
0.0
  0
LWPOLYLINE
  5
154
100
AcDbEntity
  8
0
 62
7
100
AcDbPolyline
 90
3
 70
0
 10
71.537099
 20
-63.176201
 30
0.0
 10
71.967135
 20
-62.264976
 30
0.0
 10
70.959602
 20
-62.263847
 30
0.0
  0
ENDSEC
  0
SECTION
  2
OBJECTS
  0
DICTIONARY
  5
C
330
0
100
AcDbDictionary
  3
ACAD_GROUP
350
D
  3
ACAD_MLINESTYLE
350
17
  0
DICTIONARY
  5
D
330
C
100
AcDbDictionary
  0
DICTIONARY
  5
1A
330
C
100
AcDbDictionary
  0
DICTIONARY
  5
17
330
C
100
AcDbDictionary
  3
STANDARD
350
18
  0
DICTIONARY
  5
19
330
C
100
AcDbDictionary
  0
ENDSEC
  0
EOF
